<svg width="70" height="70" viewBox="0 0 70 70" fill="none" xmlns="http://www.w3.org/2000/svg">
<path fill-rule="evenodd" clip-rule="evenodd" d="M47.6415 8.02087H22.3569C13.5457 8.02087 8.02148 14.2596 8.02148 23.0884V46.9117C8.02148 55.7405 13.5165 61.9792 22.3569 61.9792H47.6386C56.479 61.9792 61.9798 55.7405 61.9798 46.9117V23.0884C61.9798 14.2596 56.479 8.02087 47.6415 8.02087Z" fill="#F16A1B" fill-opacity="0.5"/>
<path d="M33.0938 36.1594L29.4516 32.5172L27.4688 34.5L33.0938 40.125L42.9375 30.2813L40.9547 28.2985L33.0938 36.1594Z" fill="#D95F18"/>
<path d="M54.1875 33.0938H51.3047C50.9681 29.1226 49.2377 25.3985 46.4196 22.5804C43.6015 19.7623 39.8774 18.0319 35.9062 17.6953V14.8125H33.0938V17.6953C29.1226 18.0319 25.3985 19.7623 22.5804 22.5804C19.7623 25.3985 18.0319 29.1226 17.6953 33.0938H14.8125V35.9062H17.6953C18.0319 39.8774 19.7623 43.6015 22.5804 46.4196C25.3985 49.2377 29.1226 50.9681 33.0938 51.3047V54.1875H35.9062V51.3047C39.8774 50.9681 43.6015 49.2377 46.4196 46.4196C49.2377 43.6015 50.9681 39.8774 51.3047 35.9062H54.1875V33.0938ZM35.9062 48.4922V44.3438H33.0938V48.4922C29.8678 48.1635 26.854 46.7319 24.5611 44.4389C22.2681 42.146 20.8365 39.1322 20.5078 35.9062H24.6562V33.0938H20.5078C20.8365 29.8678 22.2681 26.854 24.5611 24.5611C26.854 22.2681 29.8678 20.8365 33.0938 20.5078V24.6562H35.9062V20.5078C39.1322 20.8365 42.146 22.2681 44.4389 24.5611C46.7319 26.854 48.1635 29.8678 48.4922 33.0938H44.3438V35.9062H48.4908C48.1621 39.132 46.7307 42.1456 44.4381 44.4385C42.1454 46.7314 39.132 48.1632 35.9062 48.4922Z" fill="#D95F18"/>
</svg>
