<svg width="32" height="33" viewBox="0 0 32 33" fill="none" xmlns="http://www.w3.org/2000/svg">
<path d="M4.54587e-07 6.875C4.54587e-07 5.05164 0.724329 3.30295 2.01364 2.01364C3.30295 0.724329 5.05164 0 6.875 0H23.125C24.9484 0 26.6971 0.724329 27.9864 2.01364C29.2757 3.30295 30 5.05164 30 6.875V10.6425C28.8751 9.71299 27.6092 8.96866 26.25 8.4375V7.4975H3.75V23.1275C3.75 24.8525 5.15 26.2525 6.875 26.2525H8.435C8.9725 27.6225 9.72 28.8875 10.6425 30.0025H6.875C5.97195 30.0025 5.07775 29.8246 4.24347 29.4789C3.4092 29.1333 2.65119 28.6266 2.01276 27.988C1.37432 27.3493 0.867965 26.5911 0.522611 25.7567C0.177257 24.9223 -0.000327927 24.0281 4.54587e-07 23.125V6.875ZM7.4975 9.995H13.345C12.335 10.705 11.4275 11.545 10.645 12.495H8.7475V15.5125C7.57025 18.0886 7.21245 20.964 7.7225 23.75H7.5C7.16848 23.75 6.85054 23.6183 6.61612 23.3839C6.3817 23.1495 6.25 22.8315 6.25 22.5V11.245C6.25 10.9135 6.3817 10.5955 6.61612 10.3611C6.85054 10.1267 7.16848 9.995 7.5 9.995H7.4975ZM11.26 16.8L12.155 17.675C12.6316 18.1407 13.0103 18.697 13.2689 19.3111C13.5275 19.9253 13.6607 20.5849 13.6607 21.2513C13.6607 21.9176 13.5275 22.5772 13.2689 23.1914C13.0103 23.8055 12.6316 24.3618 12.155 24.8275L11.26 25.7025C11.585 26.4775 11.99 27.2125 12.4675 27.8875L13.455 27.59C14.1074 27.3945 14.7929 27.3344 15.4693 27.4133C16.1458 27.4922 16.799 27.7084 17.389 28.0488C17.9789 28.3892 18.493 28.8465 18.8999 29.3926C19.3067 29.9388 19.5977 30.5623 19.755 31.225L20.045 32.435C20.8449 32.5261 21.6526 32.5261 22.4525 32.435L22.74 31.225C22.8973 30.5623 23.1883 29.9388 23.5951 29.3926C24.002 28.8465 24.5161 28.3892 25.1061 28.0488C25.696 27.7084 26.3492 27.4922 27.0257 27.4133C27.7021 27.3344 28.3876 27.3945 29.04 27.59L30.03 27.8875C30.505 27.2125 30.9125 26.48 31.2375 25.7025L30.3425 24.8275C29.8659 24.3618 29.4872 23.8055 29.2286 23.1914C28.97 22.5772 28.8368 21.9176 28.8368 21.2513C28.8368 20.5849 28.97 19.9253 29.2286 19.3111C29.4872 18.697 29.8659 18.1407 30.3425 17.675L31.2375 16.8C30.9165 16.0303 30.5115 15.2984 30.03 14.6175L29.04 14.9125C28.3878 15.108 27.7025 15.1683 27.0261 15.0895C26.3498 15.0108 25.6967 14.7947 25.1068 14.4546C24.5169 14.1145 24.0027 13.6575 23.5957 13.1116C23.1888 12.5657 22.8976 11.9424 22.74 11.28L22.4525 10.07C21.6526 9.97883 20.8449 9.97883 20.045 10.07L19.7575 11.28C19.5999 11.9424 19.3088 12.5657 18.9018 13.1116C18.4948 13.6575 17.9806 14.1145 17.3907 14.4546C16.8008 14.7947 16.1477 15.0108 15.4714 15.0895C14.795 15.1683 14.1097 15.108 13.4575 14.9125L12.4675 14.6175C11.99 15.2925 11.5825 16.0225 11.26 16.8ZM21.2475 23.75C20.5845 23.75 19.9486 23.4866 19.4797 23.0178C19.0109 22.5489 18.7475 21.913 18.7475 21.25C18.7475 20.587 19.0109 19.9511 19.4797 19.4822C19.9486 19.0134 20.5845 18.75 21.2475 18.75C21.9105 18.75 22.5464 19.0134 23.0153 19.4822C23.4841 19.9511 23.7475 20.587 23.7475 21.25C23.7475 21.913 23.4841 22.5489 23.0153 23.0178C22.5464 23.4866 21.9105 23.75 21.2475 23.75Z" fill="#F7F3D0"/>
</svg>
