<svg width="43" height="43" viewBox="0 0 43 43" fill="none" xmlns="http://www.w3.org/2000/svg">
<path fill-rule="evenodd" clip-rule="evenodd" d="M21.5 0.875C10.1094 0.875 0.875 10.1094 0.875 21.5C0.875 32.8906 10.1094 42.125 21.5 42.125C32.8906 42.125 42.125 32.8906 42.125 21.5C42.125 10.1094 32.8906 0.875 21.5 0.875ZM28.4506 17.2006C28.7922 16.847 28.9812 16.3734 28.9769 15.8817C28.9726 15.3901 28.7754 14.9199 28.4278 14.5722C28.0801 14.2246 27.6099 14.0274 27.1183 14.0231C26.6266 14.0188 26.153 14.2078 25.7994 14.5494L21.5 18.8488L17.2006 14.5494C17.0277 14.3703 16.8208 14.2275 16.592 14.1292C16.3633 14.0309 16.1172 13.9792 15.8683 13.977C15.6193 13.9749 15.3724 14.0223 15.142 14.1166C14.9115 14.2109 14.7022 14.3501 14.5261 14.5261C14.3501 14.7022 14.2109 14.9115 14.1166 15.142C14.0223 15.3724 13.9749 15.6193 13.977 15.8683C13.9792 16.1172 14.0309 16.3633 14.1292 16.592C14.2275 16.8208 14.3703 17.0277 14.5494 17.2006L18.8488 21.5L14.5494 25.7994C14.3703 25.9723 14.2275 26.1792 14.1292 26.408C14.0309 26.6367 13.9792 26.8828 13.977 27.1317C13.9749 27.3807 14.0223 27.6276 14.1166 27.858C14.2109 28.0885 14.3501 28.2978 14.5261 28.4739C14.7022 28.6499 14.9115 28.7891 15.142 28.8834C15.3724 28.9777 15.6193 29.0251 15.8683 29.023C16.1172 29.0208 16.3633 28.9691 16.592 28.8708C16.8208 28.7725 17.0277 28.6297 17.2006 28.4506L21.5 24.1512L25.7994 28.4506C26.153 28.7922 26.6266 28.9812 27.1183 28.9769C27.6099 28.9726 28.0801 28.7754 28.4278 28.4278C28.7754 28.0801 28.9726 27.6099 28.9769 27.1183C28.9812 26.6266 28.7922 26.153 28.4506 25.7994L24.1512 21.5L28.4506 17.2006Z" fill="black"/>
</svg>
