<svg width="35" height="34" viewBox="0 0 35 34" fill="none" xmlns="http://www.w3.org/2000/svg">
<path d="M2.5 19.375H13.75C14.2473 19.375 14.7242 19.1775 15.0758 18.8258C15.4275 18.4742 15.625 17.9973 15.625 17.5V2.5C15.625 2.00272 15.4275 1.52581 15.0758 1.17417C14.7242 0.822544 14.2473 0.625 13.75 0.625H2.5C2.00272 0.625 1.52581 0.822544 1.17417 1.17417C0.822544 1.52581 0.625 2.00272 0.625 2.5V17.5C0.625 17.9973 0.822544 18.4742 1.17417 18.8258C1.52581 19.1775 2.00272 19.375 2.5 19.375ZM0.625 32.5C0.625 32.9973 0.822544 33.4742 1.17417 33.8258C1.52581 34.1775 2.00272 34.375 2.5 34.375H13.75C14.2473 34.375 14.7242 34.1775 15.0758 33.8258C15.4275 33.4742 15.625 32.9973 15.625 32.5V25C15.625 24.5027 15.4275 24.0258 15.0758 23.6742C14.7242 23.3225 14.2473 23.125 13.75 23.125H2.5C2.00272 23.125 1.52581 23.3225 1.17417 23.6742C0.822544 24.0258 0.625 24.5027 0.625 25V32.5ZM19.375 32.5C19.375 32.9973 19.5725 33.4742 19.9242 33.8258C20.2758 34.1775 20.7527 34.375 21.25 34.375H32.5C32.9973 34.375 33.4742 34.1775 33.8258 33.8258C34.1775 33.4742 34.375 32.9973 34.375 32.5V19.375C34.375 18.8777 34.1775 18.4008 33.8258 18.0492C33.4742 17.6975 32.9973 17.5 32.5 17.5H21.25C20.7527 17.5 20.2758 17.6975 19.9242 18.0492C19.5725 18.4008 19.375 18.8777 19.375 19.375V32.5ZM21.25 13.75H32.5C32.9973 13.75 33.4742 13.5525 33.8258 13.2008C34.1775 12.8492 34.375 12.3723 34.375 11.875V2.5C34.375 2.00272 34.1775 1.52581 33.8258 1.17417C33.4742 0.822544 32.9973 0.625 32.5 0.625H21.25C20.7527 0.625 20.2758 0.822544 19.9242 1.17417C19.5725 1.52581 19.375 2.00272 19.375 2.5V11.875C19.375 12.3723 19.5725 12.8492 19.9242 13.2008C20.2758 13.5525 20.7527 13.75 21.25 13.75Z" fill="#F7F3D0"/>
</svg>
