<svg width="31" height="31" viewBox="0 0 31 31" fill="none" xmlns="http://www.w3.org/2000/svg">
<path d="M17.0496 15.5C17.8718 15.5 18.6603 15.8266 19.2416 16.4079C19.823 16.9893 20.1496 17.7778 20.1496 18.6V20.925C20.1496 24.1087 16.9132 26.35 11.6246 26.35C6.33601 26.35 3.09961 24.1087 3.09961 20.925V18.6C3.09961 17.7778 3.42622 16.9893 4.00758 16.4079C4.58894 15.8266 5.37744 15.5 6.19961 15.5H17.0496ZM24.7996 15.5C25.6218 15.5 26.4103 15.8266 26.9916 16.4079C27.573 16.9893 27.8996 17.7778 27.8996 18.6V19.375C27.8996 22.6129 25.4692 24.8 20.9246 24.8C20.7061 24.8 20.4906 24.7953 20.2829 24.7845C21.129 23.8117 21.6241 22.5831 21.6888 21.2954L21.6996 20.925V18.6C21.6996 17.5274 21.3369 16.5385 20.7262 15.7526L20.5139 15.5H24.7996ZM11.6246 3.09998C12.337 3.09998 13.0425 3.2403 13.7007 3.51293C14.3589 3.78556 14.9569 4.18516 15.4607 4.68892C15.9644 5.19268 16.364 5.79073 16.6367 6.44892C16.9093 7.10711 17.0496 7.81255 17.0496 8.52498C17.0496 9.2374 16.9093 9.94284 16.6367 10.601C16.364 11.2592 15.9644 11.8573 15.4607 12.361C14.9569 12.8648 14.3589 13.2644 13.7007 13.537C13.0425 13.8097 12.337 13.95 11.6246 13.95C10.1858 13.95 8.80594 13.3784 7.78856 12.361C6.77117 11.3436 6.19961 9.96377 6.19961 8.52498C6.19961 7.08618 6.77117 5.70631 7.78856 4.68892C8.80594 3.67154 10.1858 3.09998 11.6246 3.09998V3.09998ZM22.4746 6.19998C23.5023 6.19998 24.4879 6.60823 25.2146 7.33494C25.9414 8.06164 26.3496 9.04726 26.3496 10.075C26.3496 11.1027 25.9414 12.0883 25.2146 12.815C24.4879 13.5417 23.5023 13.95 22.4746 13.95C21.4469 13.95 20.4613 13.5417 19.7346 12.815C19.0079 12.0883 18.5996 11.1027 18.5996 10.075C18.5996 9.04726 19.0079 8.06164 19.7346 7.33494C20.4613 6.60823 21.4469 6.19998 22.4746 6.19998Z" fill="#F7F3D0"/>
</svg>
