<svg width="589" height="1024" viewBox="0 0 589 1024" fill="none" xmlns="http://www.w3.org/2000/svg">
<rect width="589" height="1024" fill="#640E27"/>
<g style="mix-blend-mode:multiply" opacity="0.3" clip-path="url(#clip0_380_546)">
<path d="M21.3374 541.955C17.9082 543.263 14.9712 544.024 13.3047 544.189L21.3374 541.955C31.1925 538.193 45.1125 529.904 44.6234 518.186C43.7992 498.443 66.0519 389.615 73.4695 384.318C79.4036 380.08 65.5025 368.748 57.8102 363.612L56.1618 337.608L67.2882 323.644L84.1838 317.865L94.8981 315.458L100.667 321.718H104.376L141.464 280.305L135.283 251.413L148.882 232.632L162.893 227.817L178.14 229.743L188.03 238.892L191.327 241.782L233.36 224.928L295.997 212.889L367.7 224.928L404.788 238.892L445.173 265.377L490.09 312.087L526.354 369.872L539.541 382.392L551.904 389.615L559.733 400.69L556.436 422.36L565.914 427.657L579.513 438.732L586.931 454.141V473.884L562.618 508.074L559.733 541.3L524.706 656.87L482.673 718.507L438.579 761.364L393.25 787.368L319.898 806.148L243.25 799.406L193.387 777.737L140.64 738.25L100.667 691.059L89.953 673.724L40.0904 683.355L64.4036 669.39L44.6234 609.679C42.3479 588.597 44.3014 578.702 46.5227 571.156C49.3947 561.399 52.7143 555.567 47.9201 534.559L21.3374 541.955Z" fill="#F7F3D0"/>
<path d="M38.3713 577.116C44.1305 572.31 49.218 565.655 51.6281 556.71C57.2324 535.907 53.9632 571.477 51.6281 591.862C46.683 588.973 33.1665 584.061 18.661 587.528L20.2663 586.68L38.3713 577.116Z" fill="#F7F3D0"/>
<path d="M289.405 210.674C260.064 212.215 227.097 221.076 200.971 234.366L192.482 238.7L188.608 234.173C181.355 225.698 170.146 221.364 160.586 223.483C146.493 226.469 134.048 241.011 132.729 256.035C132.152 262.392 133.306 270 135.943 275.971L137.591 279.727L133.553 283.965C131.328 286.18 127.372 289.84 124.734 291.958C120.696 295.233 113.526 304.189 113.443 306.116C113.361 306.501 111.465 309.294 109.075 312.376L104.707 318.058L99.8442 315.458C97.1244 314.109 92.5091 312.472 89.4596 311.894C78.9926 309.775 68.031 315.072 60.531 325.955C53.5255 336.26 51.3003 345.795 53.608 356.389C55.9156 366.886 59.2948 372.665 67.4541 380.08L69.7618 382.199L66.9596 389.326C57.7288 412.921 50.3937 443.74 47.097 472.44C45.4486 487.271 44.3772 523.002 45.6959 523.002C46.1904 523.002 47.5915 522.52 48.7453 521.846C50.7233 520.787 50.8058 520.498 50.8058 511.445C50.8058 478.604 56.8222 439.117 66.3003 409.358C69.9266 398.09 76.108 381.525 77.2618 379.791C77.8387 379.021 76.7673 377.673 73.4706 375.169C58.0585 363.226 55.3387 344.446 66.9596 329.519C75.6135 318.25 86.4926 316.517 99.7618 324.318L105.531 327.689L107.509 324.992C119.954 307.849 129.762 296.389 143.361 283.002L145.668 280.787L143.608 276.453C140.229 269.326 138.745 260.947 139.817 255.072C140.888 248.909 142.949 245.056 147.729 239.856C155.723 231.284 165.119 228.973 175.009 233.21C178.718 234.751 180.943 236.677 184.899 241.493L189.927 247.657L200.229 242.36C233.361 225.217 264.35 217.705 301.767 217.705C321.548 217.705 334.982 219.149 351.63 223.098C422.179 239.663 484.57 292.44 519.844 365.345C522.811 371.605 523.718 372.761 525.119 372.376C526.026 372.087 527.427 371.798 528.168 371.798C529.24 371.798 528.828 370.353 526.026 364.286C513.828 338.668 495.861 311.894 476.905 291.284C425.806 235.618 358.8 206.822 289.405 210.674Z" fill="#272833"/>
<path d="M289.316 237.352C280.332 239.856 272.173 248.235 269.536 257.48C267.722 263.933 267.722 275.586 269.536 280.69C273.08 290.514 277.86 294.173 293.437 298.7C308.437 303.034 312.475 307.753 305.47 312.472C301.431 315.265 291.953 314.976 281.569 311.798C277.283 310.45 273.08 309.101 272.338 308.716C268.876 307.079 266.733 323.451 269.701 329.326C273.244 336.356 282.722 339.438 299.288 338.86C308.684 338.572 310.58 338.186 314.536 336.068C323.107 331.348 327.64 325.185 329.865 314.783C332.338 303.708 329.453 291.092 322.942 283.965C319.398 280.016 318.162 279.438 307.53 276.164C294.591 272.023 291.376 270.289 290.305 266.533C288.574 260.851 294.673 258.828 306.376 261.429C316.761 263.74 318.904 263.548 321.376 260.177C323.354 257.384 325.662 247.56 325.167 244.19C324.755 242.071 320.799 240.337 310.827 237.833C302.42 235.811 295.415 235.618 289.316 237.352Z" fill="#640E27"/>
<path d="M158.273 244.671C150.526 249.872 147.064 257.191 148.878 264.992C149.372 267.111 154.4 279.053 160.004 291.67C165.608 304.19 170.141 314.591 169.977 314.687C169.812 314.88 165.114 313.05 159.51 310.546C146.488 304.864 140.306 304.093 134.867 307.464C132.806 308.813 130.086 311.702 128.685 313.917C126.46 317.577 126.213 318.732 126.295 324.414C126.378 329.615 127.119 333.082 130.251 342.328C132.394 348.588 133.878 353.981 133.713 354.27C133.466 354.463 124.07 349.358 112.861 342.906C94.8942 332.504 91.8447 330.963 87.3117 330.578C81.2953 330.097 77.092 332.312 73.0535 338.186C69.9216 342.713 68.9326 345.795 68.9326 350.707C68.9326 361.012 73.1359 365.538 93.6579 377.288C102.477 382.296 123.74 394.43 140.883 404.254L172.119 422.071L177.889 415.522C187.861 404.061 188.191 400.691 181.021 378.347C178.301 369.872 176.075 362.552 176.075 362.167C176.075 361.686 181.35 363.419 187.861 366.116C194.29 368.812 202.532 372.28 206.24 373.724L212.916 376.421L217.614 371.605C223.466 365.538 225.526 361.012 225.526 354.174C225.526 347.625 224.784 345.313 219.015 332.504C216.378 326.822 207.229 306.597 198.658 287.528C181.845 250.065 178.795 244.864 172.367 242.841C166.762 241.012 162.806 241.589 158.273 244.671Z" fill="#640E27"/>
<path d="M349.159 275.201C344.461 289.936 337.785 310.835 334.324 321.718L327.978 341.461L333.829 344.158C342.813 348.299 346.192 348.973 349.489 347.336C353.197 345.506 354.104 343.772 358.637 329.422C360.78 322.777 362.758 317.095 363.087 316.613C363.582 316.036 377.511 321.718 378.582 322.97C378.747 323.162 377.016 329.23 374.708 336.26C372.483 343.387 370.587 350.707 370.587 352.633C370.587 357.063 372.648 360.145 377.511 363.034C384.104 366.886 391.192 365.634 393.664 360.241C394.653 358.026 420.862 276.453 420.862 275.586C420.862 275.201 417.401 273.564 413.28 271.83C398.857 265.955 396.549 267.4 390.78 285.891C388.719 292.633 386.741 298.7 386.412 299.278C386 300.145 383.774 299.567 378.582 297.255C374.626 295.522 371.164 293.788 370.917 293.499C370.587 293.114 372.153 287.336 374.379 280.594C378.747 266.918 379.241 262.488 376.686 258.443C374.956 255.747 365.148 250.064 360.12 248.909L357.648 248.331L349.159 275.201Z" fill="#640E27"/>
<path d="M225.938 252.954C216.296 257.095 212.752 261.14 213.328 267.207C213.823 271.348 239.537 350.995 241.021 352.729C241.68 353.403 253.96 347.913 257.257 345.409C260.059 343.291 261.955 337.994 261.295 334.43C260.636 331.541 235.087 253.146 234.015 251.027C233.438 249.872 232.037 250.257 225.938 252.954Z" fill="#640E27"/>
<path d="M288.169 357.448C270.119 359.759 249.844 368.042 234.762 379.213C221.905 388.748 207.152 404.831 199.158 418.122L195.531 424.093L199.652 423.515C202.042 423.13 204.103 422.167 204.762 421.108C208.141 415.618 216.713 404.639 220.998 400.305C244.322 376.324 271.685 364.093 301.85 364.093C321.465 364.093 339.597 369.005 356.493 378.925C360.861 381.525 364.158 382.777 368.443 383.258C371.658 383.74 374.46 383.933 374.625 383.74C375.202 383.162 364.158 375.361 356.987 371.316C335.476 359.278 311.246 354.462 288.169 357.448Z" fill="#272833"/>
<path d="M453.004 372.857C450.531 375.843 447.234 381.718 444.597 387.592L440.311 397.319L439.405 391.252C437.839 381.429 433.718 377.287 427.784 379.599C421.273 382.006 411.713 396.838 408.004 410.225L406.603 415.329L400.751 414.944C391.603 414.27 386.74 410.417 383.526 401.461C381.548 395.971 378.745 394.334 367.702 392.6C346.85 389.23 315.614 386.437 311.74 387.592C308.278 388.555 307.702 391.926 309.185 401.557C309.927 406.083 311.328 412.632 312.235 416.1C314.46 424.286 314.46 423.997 312.07 424.767C308.278 425.923 305.806 424.093 303.004 417.929C298.718 408.491 292.207 404.254 282.152 404.35C276.3 404.35 267.976 408.684 264.68 413.499C258.004 423.13 255.778 424.382 243.498 425.73C224.048 427.753 196.932 431.701 192.152 433.05C186.053 434.783 177.894 439.117 172.866 443.355C169.652 446.148 167.674 446.918 160.009 448.363C130.916 453.949 107.674 463.868 90.9433 477.833C80.3938 486.597 73.3059 496.709 63.8279 516.742C56.2455 532.632 45.0367 575.201 42.5642 597.351C39.5971 624.414 44.6246 646.18 58.5532 665.441C60.2015 667.753 61.4378 670.16 61.273 670.738C60.9433 671.894 59.9543 672.279 44.7895 677.961C34.6521 681.814 27.1521 685.473 27.8939 686.244C28.3884 686.822 104.048 663.226 107.674 661.396C109.24 660.626 118.718 657.448 128.691 654.462C138.663 651.38 156.63 645.987 168.663 642.327C180.696 638.668 194.625 634.526 199.57 633.178C204.597 631.733 209.954 629.807 211.603 628.844C215.971 626.244 217.949 626.533 224.789 630.963C246.877 645.024 261.548 652.054 277.702 656.099C289.817 659.085 313.636 659.085 326.081 656.003C348.581 650.417 366.383 640.401 383.938 623.258C395.064 612.375 408.004 593.595 419.377 571.637C422.344 566.051 424.734 562.488 426.3 561.621C432.976 557.769 462.976 547.368 510.696 532.247C540.202 523.002 558.004 516.067 564.762 511.348C575.394 503.836 585.119 487.368 587.839 471.958C592.042 448.748 583.388 431.798 564.432 425.923C561.053 424.864 557.921 423.515 557.427 422.937C556.767 422.167 557.015 419.856 558.416 414.366C561.218 403.483 561.795 399.342 560.971 395.779C558.581 386.244 547.289 380.851 530.888 381.621L521.987 382.006L519.432 385.762C514.652 392.889 512.592 394.623 505.586 397.127C488.031 403.579 479.542 406.469 477.811 406.469C476.822 406.469 474.927 405.313 473.691 403.772C471.713 401.557 471.3 399.823 470.476 392.408C468.581 375.457 465.284 367.945 459.597 367.945C457.619 367.945 456.136 369.005 453.004 372.857ZM462.07 375.169C464.295 378.347 466.108 394.045 464.872 399.535C464.377 401.653 464.048 401.75 456.877 401.557C450.778 401.461 449.295 401.653 448.471 403.002C447.894 403.868 446.658 404.543 445.586 404.543C443.938 404.543 443.773 404.157 444.185 401.364C444.432 399.727 446.328 394.141 448.388 388.941C453.498 376.421 459.02 370.835 462.07 375.169ZM434.048 389.326C434.542 391.059 435.202 395.971 435.449 400.209C435.778 406.372 435.531 409.069 434.213 413.499C432.399 419.759 433.141 421.204 436.932 419.181C438.828 418.122 438.828 418.218 438.004 421.011C437.509 422.648 436.685 424.189 436.191 424.382C433.965 425.345 410.641 431.413 410.311 431.124C409.652 430.353 415.256 405.795 417.234 400.69C419.377 395.104 423.745 389.133 427.784 386.148C430.751 384.029 432.647 384.992 434.048 389.326ZM547.207 388.17C552.07 390.289 556.026 394.623 556.026 397.897C556.026 399.727 555.614 399.823 546.136 399.149C537.317 398.571 536.081 398.668 534.597 400.209C532.454 402.52 530.724 409.262 530.147 417.929C529.817 421.878 529.405 425.345 529.24 425.538C529.075 425.827 526.685 425.249 524.048 424.382C521.41 423.515 518.196 422.841 517.042 422.841C515.723 422.841 514.57 422.167 514.24 421.3C513.745 419.663 515.806 406.854 517.784 399.631C519.35 394.045 524.048 387.496 527.427 386.244C531.383 384.896 541.932 385.859 547.207 388.17ZM354.844 397.705L373.388 399.438L375.943 402.809C378.993 406.661 381.96 415.714 380.641 417.255C380.229 417.737 373.8 418.122 365.147 418.122C351.877 418.026 344.954 418.507 334.652 420.53L331.273 421.108L327.894 413.114C325.339 407.143 324.762 404.831 325.504 404.254C326.575 403.387 365.559 404.157 369.762 405.217C371.74 405.602 372.894 406.95 374.789 410.706C377.18 415.329 377.344 413.596 375.119 408.395C372.482 402.424 371.987 402.231 352.619 401.364C342.729 400.979 331.52 400.787 327.564 400.883L320.394 401.172L324.515 411.766C326.74 417.544 329.789 425.441 331.273 429.294C334.817 438.636 336.713 438.828 333.91 429.583C333.251 427.271 332.839 425.249 333.004 425.056C333.169 424.767 335.311 423.997 337.784 423.323C345.202 421.011 359.625 419.952 372.482 420.626L384.762 421.204L379.322 422.841C373.224 424.575 370.174 426.886 367.702 431.316C366.218 434.109 365.641 434.302 361.108 434.494C358.388 434.591 351.713 434.976 346.273 435.361C337.207 435.939 337.702 436.035 352.289 435.939C360.943 435.843 368.114 436.132 368.114 436.421C368.114 436.709 367.042 439.31 365.641 442.295C359.789 454.912 358.388 464.157 357.647 495.746C357.152 518.571 357.07 520.112 355.586 520.112C354.267 520.112 354.103 519.053 353.938 507.785C353.526 481.685 354.68 468.299 358.718 451.83C359.46 448.941 359.707 446.34 359.295 445.859C358.883 445.377 354.68 445.377 349.487 445.955C329.707 448.266 315.614 449.904 312.564 450.482L309.35 451.059L309.844 446.148C310.504 439.213 312.317 435.746 315.778 434.398C318.169 433.531 319.158 433.531 321.3 434.783C322.702 435.65 323.938 436.228 324.02 436.132C324.103 435.939 322.042 426.982 319.405 416.1C316.685 405.217 314.542 395.971 314.542 395.49C314.542 394.526 328.718 395.297 354.844 397.705ZM554.954 404.831C555.531 405.217 555.119 408.299 553.883 413.788C552.811 418.315 551.245 427.271 550.339 433.628C549.432 440.08 548.526 445.377 548.361 445.57C548.196 445.762 546.713 443.644 545.064 440.851C543.333 437.961 539.954 434.013 537.482 431.894C535.009 429.872 532.784 427.56 532.537 426.886C532.125 425.538 534.68 410.61 536.163 406.083L537.07 403.291L545.559 403.772C550.256 403.965 554.46 404.446 554.954 404.831ZM502.454 405.987C502.454 408.106 499.405 410.995 496.438 411.573C492.07 412.536 464.954 419.856 463.388 420.53C462.152 421.108 461.987 420.722 462.234 418.507C462.564 415.329 463.388 414.751 469.487 413.307C471.96 412.729 480.119 410.61 487.619 408.491C503.773 403.965 502.454 404.254 502.454 405.987ZM290.394 414.27C293.855 415.522 299.048 422.263 298.718 425.056C298.471 426.982 297.729 427.271 290.888 428.234C284.46 429.197 282.894 429.775 280.174 432.376C276.218 436.035 269.46 439.213 265.504 439.213C263.031 439.213 262.619 438.925 262.619 436.998C262.619 432.472 265.174 425.056 268.059 421.108C273.828 413.114 280.998 410.995 290.394 414.27ZM489.927 422.552C489.68 426.019 489.597 426.116 483.91 428.234C480.778 429.39 475.504 431.316 472.289 432.376C466.85 434.205 466.438 434.591 466.767 436.709C467.344 440.08 465.284 443.836 459.35 450.482C456.383 453.66 452.427 459.053 450.531 462.327C446.163 469.839 441.63 475.233 437.592 477.544C434.625 479.374 406.438 489.39 395.394 492.664C386.74 495.265 384.185 492.279 386.081 481.782C388.553 467.913 395.559 456.934 404.213 453.371C408.251 451.637 408.581 451.252 409.734 446.629C410.394 443.933 410.971 441.236 410.971 440.562C410.971 439.791 411.713 438.828 412.619 438.25C414.844 436.902 435.366 431.22 449.295 428.138C467.592 424.189 481.273 421.011 483.91 420.048C485.311 419.567 487.207 419.085 488.278 419.085C490.009 418.989 490.174 419.374 489.927 422.552ZM398.526 426.693C400.751 428.042 402.729 434.687 402.729 440.658V445.955L395.559 452.215C387.317 459.246 386.245 460.883 380.971 474.462C376.273 486.597 375.943 491.124 379.652 496.517C381.053 498.539 382.125 500.465 382.125 500.754C382.125 502.488 378.004 514.719 377.015 515.875C376.438 516.549 373.471 517.416 370.504 517.801C363.993 518.571 363.004 517.705 361.026 509.904C359.872 505.377 359.872 502.295 360.531 488.042C361.767 464.35 364.405 451.348 370.504 439.021C374.048 431.798 377.015 429.005 382.289 427.753C384.68 427.271 387.399 426.597 388.306 426.404C391.438 425.538 397.042 425.73 398.526 426.693ZM522.317 427.464C532.702 430.642 540.696 438.154 544.652 448.459C547.372 455.682 547.702 469.551 545.311 477.159C543.086 483.997 539.295 489.101 534.185 492.087C527.344 496.035 524.048 492.376 527.839 484.96C530.971 478.989 532.454 471.766 532.454 462.809C532.454 455.297 532.207 453.371 530.147 448.074C526.191 438.154 520.009 433.146 509.295 431.413C505.751 430.835 500.559 430.642 497.756 430.931C494.789 431.316 492.564 431.22 492.564 430.642C492.564 429.968 497.18 428.331 505.339 426.404C509.13 425.441 517.289 425.923 522.317 427.464ZM567.317 431.027C573.086 433.05 578.443 438.828 581.74 446.726C584.295 452.697 584.46 453.852 584.46 462.809C584.46 471.38 584.213 472.825 582.564 475.618C581.328 477.64 579.927 478.7 578.608 478.7C576.3 478.7 576.218 478.218 577.949 471.284C579.844 463.772 579.267 452.6 576.795 446.918C573.498 439.502 569.542 435.554 563.031 433.242C559.899 432.087 556.932 430.738 556.52 430.353C555.119 429.005 562.949 429.486 567.317 431.027ZM307.289 443.258C306.63 446.629 305.971 449.807 305.888 450.289C305.806 450.867 300.531 452.022 294.267 453.082C287.921 454.045 267.811 457.319 249.432 460.498C231.136 463.579 215.971 465.891 215.724 465.698C214.899 464.639 217.454 454.045 219.103 452.022C221.41 449.133 224.213 448.363 239.954 446.437C257.839 444.318 300.861 438.154 301.273 437.673C301.438 437.48 303.169 437.287 305.064 437.287H308.526L307.289 443.258ZM558.581 440.754C561.877 445.377 556.603 470.417 551.081 476.292L549.267 478.218L549.844 466.661C550.174 460.305 550.751 453.66 551.245 452.022C551.658 450.289 551.987 447.014 551.905 444.799C551.822 442.488 551.822 440.369 551.822 439.888C551.987 438.539 557.509 439.213 558.581 440.754ZM513.333 441.236C516.795 442.103 518.443 443.258 521.163 446.533C528.993 455.971 529.322 473.307 521.987 489.775C518.773 496.998 504.103 514.334 497.18 519.053C479.872 530.995 459.597 528.684 453.169 514.045C450.366 507.689 449.789 497.576 451.767 489.679C454.24 479.47 457.784 473.114 467.015 462.231C474.35 453.66 476.822 451.348 483.169 447.592C495.119 440.465 503.278 438.732 513.333 441.236ZM200.147 444.029C198.828 446.918 198.828 447.111 200.311 448.363C201.465 449.326 204.103 449.807 208.883 449.807H215.806L215.394 452.408C215.064 453.949 214.487 457.705 213.993 460.979L213.086 466.758L205.504 467.913C194.377 469.551 148.553 478.411 136.685 481.204C126.3 483.708 112.619 487.945 111.795 489.005C111.548 489.294 112.289 489.294 113.443 489.005C123.251 486.019 151.026 479.181 159.103 477.737C179.625 473.981 212.344 468.684 212.592 469.165C212.756 469.358 212.674 474.944 212.262 481.589C211.932 488.234 211.438 507.303 211.273 523.965L210.943 554.302L204.844 558.924C195.366 566.051 176.822 576.26 175.751 574.912C175.586 574.719 174.597 569.229 173.691 562.777C171.96 551.316 168.581 537.929 166.767 536.003C166.191 535.329 166.108 535.618 166.52 536.966C168.251 542.552 172.784 565.088 173.278 570.578C173.855 576.741 173.773 576.934 171.63 577.801C167.921 579.534 167.427 578.571 166.273 567.014C162.729 529.454 143.855 505.859 115.256 503.162C107.592 502.488 99.9268 504.125 90.7785 508.652C83.5257 512.119 73.1411 519.92 70.5862 523.676C67.207 528.684 68.196 525.024 72.3993 516.742C77.8389 506.148 89.2949 491.894 97.6191 485.345C112.454 473.788 128.031 467.143 153.416 461.461L170.724 457.608L173.031 460.69C174.597 462.713 175.174 463.098 174.762 461.846C173.773 458.957 174.02 454.912 175.256 453.082C176.822 450.963 184.487 446.629 190.916 444.222C193.883 443.066 196.85 442.006 197.509 441.717C198.169 441.525 199.405 441.236 200.147 441.236C201.465 441.14 201.465 441.332 200.147 444.029ZM565.421 445.57C572.839 453.949 573.333 466.372 566.905 481.108C562.784 490.449 550.339 505.088 542.839 509.326C537.234 512.408 532.125 514.045 532.125 512.697C532.125 512.311 535.916 509.133 540.531 505.762C551.74 497.384 559.487 488.138 564.515 476.966C567.647 469.936 568.388 467.432 568.388 463.387C568.388 457.512 566.905 452.986 563.443 448.074C559.075 441.814 560.476 439.984 565.421 445.57ZM356.245 451.926C352.207 475.329 351.465 481.974 351.136 498.925C350.888 508.748 350.559 517.705 350.394 518.86C349.982 521.075 346.273 523.002 342.235 523.002C340.833 523.002 327.811 525.794 313.306 529.262C289.817 534.751 282.317 536.774 268.306 541.396C265.092 542.359 263.443 542.359 258.416 541.204C251.245 539.567 241.438 539.663 236.245 541.204C234.185 541.878 228.169 544.767 222.811 547.656C217.537 550.546 213.004 552.857 212.756 552.857C211.603 552.857 212.756 500.369 214.487 476.581L215.064 469.069L218.031 468.202C219.68 467.624 230.064 465.987 241.191 464.35C284.707 457.994 301.932 455.586 303.663 455.586C305.311 455.586 305.476 456.067 305.476 460.401C305.476 464.543 305.724 465.217 307.125 465.217C308.526 465.217 308.773 464.543 308.773 460.498C308.773 457.801 309.185 455.393 309.68 455.008C310.916 454.141 346.52 449.133 352.372 448.941L356.822 448.844L356.245 451.926ZM448.8 489.294C446.905 496.517 445.916 506.725 446.74 511.733C447.482 516.26 453.333 523.772 458.855 527.335C462.482 529.55 464.542 530.225 470.147 530.514C479.954 531.091 477.482 532.921 466.85 532.921C460.009 532.921 457.619 532.536 454.652 530.995C446.658 526.758 442.866 519.149 442.784 507.592C442.702 503.644 443.196 498.636 443.773 496.517C444.844 492.376 449.625 482.167 450.119 482.745C450.284 482.937 449.707 485.923 448.8 489.294ZM423.745 493.531C425.311 494.783 425.311 495.072 423.91 500.273C422.344 505.859 420.119 508.555 417.07 508.555C414.515 508.555 412.619 507.592 412.619 506.244C412.619 505.088 415.916 495.361 416.987 493.339C417.894 491.798 421.85 491.894 423.745 493.531ZM433.059 512.022C433.388 516.742 432.399 517.897 426.96 519.053C424.734 519.631 412.537 522.616 399.844 525.891C387.152 529.165 373.471 532.632 369.35 533.595C365.311 534.655 340.421 540.819 314.213 547.464C287.921 554.109 266.163 559.31 265.916 559.117C265.009 558.443 266.245 551.894 267.811 548.331C271.108 541.107 276.795 539.181 324.02 530.128C342.152 526.661 362.756 522.52 369.762 520.979C376.767 519.438 390.119 516.645 399.432 514.719C408.745 512.889 419.295 510.578 422.921 509.518C432.07 507.014 432.729 507.207 433.059 512.022ZM126.053 512.408C137.18 517.319 145.833 526.95 152.262 541.782C155.394 549.101 155.724 550.546 156.136 558.924C156.548 569.037 155.559 575.586 152.921 579.92C150.366 584.061 141.96 588.491 136.026 588.78L131.163 588.973L130.586 575.008C129.762 553.05 126.218 541.589 116.822 530.61C109.982 522.616 105.778 520.69 95.8059 521.172C89.707 521.557 88.2235 522.038 81.8774 525.698C77.9213 528.01 74.707 530.225 74.707 530.706C74.707 531.284 74.1301 531.669 73.4708 531.669C71.4928 531.669 71.9873 530.803 76.4378 525.891C80.9708 520.883 92.8389 513.274 98.6081 511.637C100.669 511.059 103.059 510.289 103.965 510.096C108.004 508.941 121.355 510.385 126.053 512.408ZM109.075 536.003C110.806 536.87 112.866 538.218 113.691 539.181C118.224 543.9 122.921 561.428 124.322 578.475C125.147 588.684 125.064 591.284 123.828 598.7C121.191 614.591 114.762 628.266 104.46 639.823C97.7015 647.528 92.5917 650.417 86.2455 650.417C68.3609 650.417 58.2235 632.985 58.2235 602.167C58.2235 572.504 73.1411 541.589 90.3664 535.425C94.1576 534.077 105.861 534.462 109.075 536.003ZM262.866 546.982C263.443 547.656 263.443 549.679 262.866 553.435C262.372 556.806 262.289 560.273 262.784 562.777C264.515 572.215 264.597 571.926 262.125 574.623C260.806 575.971 258.004 578.186 255.778 579.438C248.278 583.965 244.24 584.446 212.18 585.024C195.614 585.313 177.976 585.891 173.031 586.18C163.471 586.854 162.811 586.276 169.899 583.194C174.597 581.172 205.256 563.644 220.586 554.205C233.114 546.501 238.8 545.056 252.647 545.538C257.756 545.827 262.372 546.404 262.866 546.982ZM382.949 551.798C382.949 553.531 357.811 564.703 338.855 571.541C321.053 577.801 280.916 589.55 247.784 598.026C219.68 605.249 180.284 612.568 169.57 612.568H163.553L164.048 606.982C164.377 603.997 164.872 600.626 165.119 599.663C165.531 597.833 165.614 597.833 166.685 599.47C168.498 602.456 172.619 602.648 188.443 600.337C207.729 597.64 220.504 595.04 238.718 590.225C264.267 583.483 271.767 581.846 281.905 580.786C300.614 578.86 305.806 577.801 317.344 573.563C323.773 571.348 339.927 565.666 353.278 561.043C366.63 556.42 378.169 552.183 378.828 551.798C380.476 550.738 382.949 550.738 382.949 551.798ZM342.564 554.494C342.564 555.843 286.767 575.297 273.498 578.668L265.833 580.594L266.41 578.571C266.658 577.416 267.234 576.067 267.564 575.682C267.894 575.201 273.169 573.66 279.267 572.119C285.284 570.674 299.13 566.629 310.009 563.162C338.361 554.013 342.564 552.857 342.564 554.494ZM410.064 568.652C407.921 573.66 410.971 572.311 380.229 582.231C369.762 585.602 349.075 592.343 334.322 597.159C319.57 601.974 300.284 608.234 291.465 611.123C282.647 613.916 268.059 618.732 259.158 621.621C250.174 624.607 242.427 627.014 241.767 627.014C241.191 627.014 238.883 625.666 236.658 624.029C233.691 621.814 232.949 620.851 233.855 620.273C235.174 619.406 238.388 618.347 286.108 603.323C305.641 597.159 328.059 590.032 335.971 587.528C343.883 585.024 359.707 580.016 370.998 576.453C382.372 572.889 396.053 568.555 401.493 566.822C406.932 565.088 411.465 563.74 411.63 563.933C411.795 564.029 411.053 566.148 410.064 568.652ZM218.938 590.417C220.916 591.091 220.833 591.091 218.114 591.669C203.361 594.751 171.053 598.507 169.322 597.448C168.251 596.774 168.581 593.595 169.735 592.536C171.63 590.61 214.405 588.78 218.938 590.417ZM397.866 591.091C397.372 592.054 395.971 594.173 394.734 595.907C392.674 598.603 390.366 599.567 370.998 606.115C341.658 616.035 284.542 635.008 274.899 637.993L267.07 640.497L262.372 638.668C255.943 636.067 255.284 635.489 257.674 634.623C258.828 634.334 274.24 629.326 291.877 623.74C327.976 612.183 333.663 610.353 371.41 598.218C386.163 593.499 398.278 589.55 398.443 589.55C398.526 589.454 398.278 590.225 397.866 591.091ZM55.4213 607.079C55.5862 622.584 59.6246 635.104 67.4543 644.542C75.3664 653.981 84.0202 655.81 95.3114 650.225C98.6906 648.587 101.493 647.432 101.658 647.624C102.564 648.684 96.3004 655.233 92.262 657.544C88.5532 659.566 86.4103 660.144 82.207 660.144C67.5367 660.048 57.8939 649.55 53.1136 628.555C51.6301 621.814 50.9708 599.278 52.207 597.833C52.4543 597.448 53.2785 597.159 54.0202 597.159C55.1741 597.159 55.3389 598.7 55.4213 607.079ZM374.707 617.865C374.707 618.058 372.234 620.273 369.185 622.68C362.921 627.592 362.674 627.688 328.636 638.571C307.042 645.409 303.663 646.276 297.234 646.276C293.278 646.276 289.817 645.987 289.487 645.602C289.158 645.217 291.218 644.157 294.103 643.29C300.284 641.461 317.839 635.682 349.57 625.184C372.647 617.576 374.707 616.998 374.707 617.865Z" fill="#272833"/>
<path d="M499.986 444.029C498.42 444.607 498.997 444.799 502.459 444.896C508.228 444.992 513.668 448.074 516.305 452.697C517.953 455.586 518.201 457.031 517.953 462.809C517.541 472.44 514.162 480.241 509.052 483.323C506.58 484.767 504.19 485.442 502.047 485.249C498.338 484.96 498.42 485.538 499.574 473.403C500.069 467.913 499.986 466.372 498.915 465.409C497.843 464.35 497.679 465.024 497.349 470.225C496.937 477.352 495.288 481.878 490.755 487.849C486.387 493.628 480.453 497.095 474.025 497.673C469.821 498.058 468.668 497.865 466.195 495.843C462.239 492.761 461.085 489.775 461.744 484.575C462.157 480.915 462.074 480.433 461.085 481.397C460.426 481.974 459.107 484.382 458.118 486.694C446.744 513.371 475.673 531.958 499.492 513.275C517.294 499.406 527.596 476.485 523.558 460.112C520.508 447.689 509.712 440.369 499.986 444.029Z" fill="#272833"/>
<path d="M91.1953 539.856C89.2173 541.204 89.2997 541.204 93.2557 541.301H97.3766L93.2557 544.093C87.4865 547.946 82.7063 553.05 79.7393 558.347C78.3382 560.755 77.1843 563.162 77.1843 563.548C77.1843 563.933 79.0799 563.162 81.47 561.814C84.9316 559.888 86.6623 559.503 90.1239 559.792C98.2008 560.562 102.569 568.267 103.311 582.809C103.97 595.618 100.261 607.946 93.2557 615.843C87.1568 622.777 80.6458 623.837 74.4645 618.829C70.2612 615.554 69.2722 617.384 71.7447 623.74C77.5964 638.475 88.4755 643.387 100.096 636.549C108.75 631.541 116.085 619.599 119.959 604.286C121.855 596.678 122.102 593.114 120.866 590.321C119.712 587.914 117.981 588.01 112.212 590.61C106.36 593.211 106.03 592.729 106.03 582.135C106.03 573.949 104.547 567.304 102.074 564.126C100.261 561.718 93.6678 557.866 89.8766 556.902L86.8272 556.228L88.97 553.339C92.514 548.331 98.1184 545.634 105.041 545.634C112.377 545.731 112.706 544.382 106.113 540.915C100.673 538.122 94.492 537.641 91.1953 539.856Z" fill="#272833"/>
<path d="M93.4148 587.047C87.6456 593.018 76.3543 596.87 70.7499 594.848C68.2774 593.885 68.2774 596.581 70.7499 598.508C74.0466 601.204 79.8983 600.434 87.9752 596.292L95.3104 592.44V597.256C95.3104 599.856 95.6401 601.975 95.9697 601.975C97.206 601.975 98.9368 594.27 99.0192 589.069C99.0192 583.002 97.7005 582.52 93.4148 587.047Z" fill="#272833"/>
<path d="M553.797 524.928C552.231 525.698 551.901 526.565 551.901 530.418C551.901 536.774 550.5 550.257 548.522 562.97C532.863 662.841 474.264 746.052 393.247 783.323C375.115 791.702 358.467 796.902 338.687 800.369C324.099 803.066 294.346 804.029 279.346 802.392C213.742 795.169 154.648 759.727 111.791 701.654C105.857 693.564 95.9671 678.636 94.0715 674.687C93.4121 673.339 92.5879 673.146 90.5275 673.724C89.044 674.013 87.8901 674.784 87.8901 675.361C87.8901 678.54 105.528 704.35 117.478 718.796C163.549 774.27 222.808 805.859 288.495 809.904C352.039 813.853 413.687 790.45 463.714 743.162C472.863 734.495 490.912 713.596 498.577 702.809C528.412 660.723 547.78 611.509 555.115 558.828C556.022 552.472 556.929 543.515 557.258 538.796C557.506 534.077 557.918 528.78 558.165 527.047C558.577 523.676 557.506 523.194 553.797 524.928Z" fill="#272833"/>
<path d="M37.4549 535.329C27.9768 539.374 20.312 543.13 20.312 543.612C20.312 544.864 27.8944 543.515 38.1966 540.337C43.3065 538.7 48.1691 537.448 49.0757 537.448C51.7955 537.448 55.0922 533.403 54.7625 530.514L54.5153 528.01L37.4549 535.329Z" fill="#272833"/>
<path d="M540.448 529.84C538.717 530.61 443.937 561.332 431.492 565.088L426.876 566.533L423.003 576.453C403.882 624.896 366.464 657.64 320.475 666.116C308.607 668.234 286.272 667.56 274.733 664.671C257.426 660.241 241.025 652.151 226.684 640.883L218.689 634.527L208.717 637.512C186.876 644.061 150.695 655.04 130.75 661.204C119.211 664.767 107.591 668.331 105.036 669.197C102.398 669.968 100.255 671.124 100.255 671.701C100.255 672.279 103.305 677.48 107.014 683.355C131.656 721.493 165.613 752.793 203.442 772.344C239.871 791.124 282.645 799.502 321.134 795.554C400.915 787.175 470.145 736.709 510.695 657.352C529.486 620.562 541.025 579.246 544.321 536.677C545.063 528.106 544.816 527.721 540.448 529.84ZM458.937 584.543C462.481 591.092 462.151 592.44 454.981 600.337C449.623 606.212 446.409 611.027 446.409 612.954C446.409 613.242 447.316 614.206 448.387 614.976C450.2 616.421 450.612 616.421 453.167 614.976C454.651 614.013 459.349 610.257 463.634 606.501L471.299 599.663H477.233C481.766 599.663 483.909 600.145 486.629 601.782C499.569 609.775 503.442 624.414 496.602 639.631C493.058 647.432 482.591 659.952 478.222 661.685C476.492 662.36 473.937 662.552 472.536 662.263L469.981 661.685L473.03 665.345C478.305 671.701 477.81 673.146 465.612 688.363C452.426 704.543 449.788 706.372 444.596 702.327C442.206 700.498 400.008 653.114 399.514 651.766C399.102 650.417 407.755 640.401 410.805 638.957C413.03 637.801 413.854 637.801 416.162 638.957C417.563 639.631 425.475 647.817 433.634 656.966C441.876 666.212 449.294 674.494 450.2 675.361C451.849 676.998 452.096 676.806 459.102 667.945L466.272 658.796L464.623 656.292C463.634 654.848 462.893 653.018 462.893 652.151C462.893 651.188 465.942 647.721 469.733 644.254C477.645 636.934 481.189 631.445 481.354 626.34C481.437 622.97 481.272 622.681 478.964 622.392C476.986 622.199 475.255 623.162 470.805 627.207C458.607 638.379 453.085 640.979 446.656 638.571C435.2 634.141 428.195 620.466 430.667 607.368C432.398 598.411 438.003 590.032 448.222 581.268C453.085 577.031 453.25 576.934 454.898 578.571C455.805 579.535 457.618 582.231 458.937 584.543ZM197.508 654.173C203.195 657.544 203.525 659.759 201.134 678.443C200.063 686.822 199.239 693.949 199.404 694.141C199.569 694.334 202.041 692.311 204.926 689.615C212.343 682.681 216.464 681.814 221.492 685.859C224.541 688.363 225.777 694.141 225.118 703.002L224.541 710.321L235.173 697.994C245.31 686.437 246.052 685.762 249.184 685.762C251.327 685.762 253.552 686.629 255.53 688.17C257.755 689.904 258.497 690.193 258.497 689.133C258.497 687.881 259.569 687.785 264.514 688.266C277.865 689.518 278.689 690.77 278.03 707.817L277.618 720.144L281.821 720.819C284.211 721.108 287.261 721.396 288.662 721.396H291.217L291.794 710.128C292.453 697.897 293.442 694.43 296.821 692.697C299.129 691.445 305.64 691.156 310.585 692.119L313.717 692.793L313.222 699.631C312.975 703.387 311.904 720.241 310.915 736.998C309.184 766.18 309.019 767.721 307.206 769.936C304.486 773.307 299.129 774.173 294.266 771.958C288.992 769.647 288.662 768.395 289.321 753.467L289.898 740.658L284.047 740.466C280.915 740.466 277.865 740.369 277.288 740.273C276.217 740.177 276.217 740.177 275.393 753.178C275.063 758.764 274.321 764.446 273.662 765.795C271.849 770.032 265.75 771.477 257.343 769.743L254.047 769.069L254.294 763.291C254.376 760.112 255.2 746.244 256.025 732.472C256.849 718.7 257.508 707.336 257.343 707.239C257.261 707.047 248.772 716.774 238.634 728.716C228.497 740.658 219.184 751.059 217.948 751.83C214.733 753.756 209.953 753.467 206.244 750.963L202.948 748.844L203.195 735.939C203.442 721.685 203.772 722.167 197.508 728.138C187.618 737.673 184.733 738.539 177.645 734.302L173.442 731.894L173.937 727.368C176.986 702.327 182.096 663.419 182.755 661.011C183.827 656.966 188.689 652.055 191.574 652.055C192.81 652.055 195.53 653.018 197.508 654.173ZM399.349 658.315C402.069 663.901 402.563 668.716 400.832 671.509C400.255 672.376 397.371 674.687 394.486 676.613C391.519 678.636 388.305 680.851 387.316 681.525L385.503 682.873L387.81 687.496C389.129 690 390.53 691.926 390.942 691.83C391.354 691.734 395.393 689.23 399.843 686.148C408.827 680.08 407.673 679.888 411.629 688.074C413.442 691.926 413.937 695.779 412.948 698.764C412.618 699.631 409.486 702.231 405.942 704.639C402.316 707.047 399.431 709.551 399.431 710.032C399.431 711.188 403.387 719.47 403.964 719.47C404.129 719.47 408.415 716.581 413.525 713.114C423.909 706.083 423.332 705.987 427.041 714.366C428.689 718.218 429.102 720.144 428.689 722.36C428.03 725.827 426.711 726.886 406.931 740.177C396.876 747.014 394.156 748.363 393.58 747.303C392.673 745.57 383.112 726.405 369.514 698.957L359.211 678.058L365.887 673.435C369.596 670.931 377.838 665.345 384.184 661.011C390.53 656.677 395.97 653.114 396.299 653.114C396.547 653.018 397.948 655.425 399.349 658.315ZM358.634 685.859C360.942 696.645 359.541 698.571 346.849 702.135C340.667 703.868 339.266 704.543 339.596 705.891C339.843 706.758 340.42 709.262 340.832 711.38L341.739 715.425L351.299 712.536C356.574 710.995 361.025 709.936 361.272 710.225C361.931 710.899 363.992 720.819 363.992 723.13C363.992 727.271 360.118 730.449 352.7 732.472C348.909 733.435 345.86 734.591 345.86 734.976C345.86 737.673 347.92 745.474 348.662 745.474C349.156 745.474 354.019 744.125 359.459 742.681C364.898 741.14 369.596 740.177 369.926 740.466C370.915 741.718 372.481 752.793 371.986 755.201C371.244 758.764 367.948 760.305 350.393 765.217C341.821 767.624 334.074 769.839 333.332 770.128C332.343 770.514 331.766 769.936 331.437 768.395C331.189 767.143 327.481 749.326 323.113 728.716C318.827 708.202 315.365 691.252 315.53 691.059C315.777 690.867 355.42 679.31 356.656 679.117C356.986 679.021 357.893 682.103 358.634 685.859Z" fill="#640E27"/>
<path d="M37.6166 578.764C36.9573 579.246 32.3419 581.172 27.3144 583.194C22.3694 585.217 17.9188 587.239 17.4243 587.625C16.4353 588.78 21.8749 588.684 30.2815 587.528C40.0068 586.084 40.7485 585.795 41.7375 583.676C43.6331 579.631 40.9958 576.549 37.6166 578.764Z" fill="#272833"/>
<path d="M21.3829 624.029C13.9653 627.014 7.28944 630.289 6.54768 631.252C5.14658 632.889 5.14658 632.986 6.71252 632.504C13.718 630.289 31.3554 626.051 33.6631 626.051C35.229 626.051 37.207 625.474 38.0312 624.703C39.4323 623.547 39.5147 622.97 38.6081 620.851C38.1136 619.406 37.0422 618.443 36.218 618.443C35.3939 618.539 28.718 621.043 21.3829 624.029Z" fill="#272833"/>
</g>
<defs>
<clipPath id="clip0_380_546">
<rect width="589" height="600" fill="white" transform="translate(0 210)"/>
</clipPath>
</defs>
</svg>
