<svg width="69" height="60" viewBox="0 0 69 60" fill="none" xmlns="http://www.w3.org/2000/svg">
<path d="M1.87197 32.8957C1.46638 33.0255 1.11899 33.1009 0.921875 33.1174L1.87197 32.8957C3.03761 32.5226 4.68404 31.7003 4.62618 30.538C4.5287 28.5795 7.16071 17.7843 8.03804 17.2588C8.73991 16.8385 7.09572 15.7144 6.18589 15.2049L5.99093 12.6255L7.30693 11.2402L9.30531 10.667L10.5726 10.4282L11.2549 11.0492H11.6936L16.0803 6.94124L15.3492 4.07524L16.9576 2.21234L18.6148 1.73467L20.4182 1.92574L21.588 2.83331L21.9779 3.11991L26.9495 1.44807L34.3581 0.253906L42.839 1.44807L47.2257 2.83331L52.0023 5.46047L57.3151 10.0938L61.6043 15.8258L63.164 17.0678L64.6262 17.7843L65.5523 18.8829L65.1624 21.0324L66.2834 21.5578L67.8919 22.6565L68.7692 24.185V26.1434L65.8935 29.5349L65.5523 32.8308L61.4093 44.2948L56.4377 50.4089L51.2225 54.6602L45.861 57.2396L37.1851 59.1025L28.1193 58.4337L22.2216 56.2842L15.9828 52.3674L11.2549 47.6862L9.98768 45.9666L4.09003 46.922L6.96575 45.5367L4.62618 39.6137C4.35705 37.5224 4.5881 36.5409 4.85083 35.7923C5.19052 34.8244 5.58316 34.246 5.01611 32.1621L1.87197 32.8957Z" fill="#F7F3D0"/>
<path d="M3.88457 36.3833C4.56576 35.9064 5.16749 35.2464 5.45255 34.359C6.11542 32.2955 5.72874 35.8238 5.45255 37.846C4.86766 37.5594 3.26895 37.0721 1.55327 37.4161L1.74315 37.332L3.88457 36.3833Z" fill="#F7F3D0"/>
<path d="M33.577 0.0336685C30.1066 0.186523 26.2073 1.06543 23.1172 2.38379L22.1131 2.81369L21.6549 2.36468C20.7971 1.52399 19.4713 1.09409 18.3406 1.30426C16.6736 1.60042 15.2016 3.04297 15.0457 4.53329C14.9774 5.16381 15.1139 5.91852 15.4258 6.51083L15.6208 6.88341L15.1431 7.30376C14.8799 7.52349 14.412 7.88651 14.1001 8.09669C13.6224 8.4215 12.7743 9.30996 12.7646 9.50102C12.7548 9.53924 12.5306 9.81628 12.2479 10.122L11.7313 10.6856L11.1561 10.4277C10.8345 10.294 10.2886 10.1315 9.92787 10.0742C8.68985 9.86405 7.39334 10.3895 6.50626 11.469C5.67766 12.4912 5.41446 13.437 5.68741 14.4879C5.96036 15.5292 6.36004 16.1024 7.32511 16.838L7.59806 17.0482L7.26662 17.7551C6.17482 20.0957 5.30723 23.1527 4.91731 25.9996C4.72234 27.4708 4.59562 31.0151 4.75159 31.0151C4.81008 31.0151 4.9758 30.9674 5.11227 30.9005C5.34623 30.7954 5.35597 30.7667 5.35597 29.8687C5.35597 26.611 6.06759 22.6942 7.18863 19.7422C7.61755 18.6245 8.34867 16.9813 8.48514 16.8093C8.55338 16.7329 8.42665 16.5992 8.03672 16.3508C6.21381 15.1662 5.89212 13.3033 7.26662 11.8225C8.29018 10.7047 9.57694 10.5328 11.1464 11.3066L11.8288 11.641L12.0627 11.3735C13.5347 9.67299 14.6947 8.53614 16.3032 7.20823L16.5761 6.9885L16.3324 6.5586C15.9327 5.85165 15.7573 5.02051 15.884 4.43776C16.0107 3.82634 16.2544 3.44421 16.8198 2.92833C17.7654 2.07808 18.8767 1.8488 20.0465 2.26915C20.4851 2.422 20.7484 2.61307 21.2163 3.09074L21.8109 3.70215L23.0294 3.17672C26.9482 1.47622 30.6135 0.731062 35.0392 0.731062C37.3787 0.731062 38.9677 0.874363 40.9368 1.26605C49.2813 2.90922 56.6606 8.14445 60.8329 15.3763C61.1838 15.9973 61.291 16.1119 61.4568 16.0737C61.564 16.0451 61.7297 16.0164 61.8174 16.0164C61.9442 16.0164 61.8954 15.8731 61.564 15.2712C60.1213 12.7301 57.9961 10.0742 55.7541 8.02981C49.7102 2.50798 41.7849 -0.348465 33.577 0.0336685Z" fill="#272833"/>
<path d="M33.5678 2.68085C32.5052 2.92923 31.5402 3.76037 31.2282 4.67749C31.0138 5.31757 31.0138 6.47352 31.2282 6.97985C31.6474 7.95429 32.2128 8.31731 34.0552 8.76632C35.8294 9.19622 36.307 9.66433 35.4784 10.1324C35.0008 10.4095 33.8797 10.3808 32.6515 10.0656C32.1446 9.93183 31.6474 9.79808 31.5597 9.75987C31.1502 9.59746 30.8968 11.2215 31.2477 11.8043C31.6669 12.5017 32.7879 12.8074 34.7473 12.7501C35.8586 12.7214 36.0828 12.6832 36.5507 12.473C37.5645 12.0049 38.1007 11.3935 38.3639 10.3617C38.6563 9.26309 38.3152 8.01161 37.545 7.30466C37.1259 6.91297 36.9797 6.85565 35.7221 6.53084C34.1917 6.12005 33.8115 5.94809 33.6848 5.57551C33.4801 5.01186 34.2014 4.81124 35.5857 5.06918C36.8139 5.29846 37.0674 5.27935 37.3598 4.94499C37.5938 4.66794 37.8667 3.6935 37.8082 3.35913C37.7595 3.14896 37.2916 2.977 36.1121 2.72861C35.1178 2.52799 34.2892 2.50889 33.5678 2.68085Z" fill="#640E27"/>
<path d="M18.068 3.40715C17.1517 3.92303 16.7422 4.64908 16.9567 5.4229C17.0152 5.63308 17.6098 6.81769 18.2727 8.06918C18.9356 9.31111 19.4717 10.3429 19.4522 10.3524C19.4327 10.3715 18.8771 10.19 18.2142 9.94163C16.674 9.37799 15.9429 9.30156 15.2995 9.63593C15.0558 9.76967 14.7341 10.0563 14.5684 10.276C14.3052 10.639 14.276 10.7537 14.2857 11.3173C14.2955 11.8332 14.3832 12.1771 14.7536 13.0942C15.0071 13.7152 15.1825 14.2502 15.163 14.2788C15.1338 14.298 14.0225 13.7916 12.6968 13.1516C10.5717 12.1198 10.211 11.9669 9.67482 11.9287C8.9632 11.881 8.46605 12.1007 7.98839 12.6834C7.61795 13.1324 7.50098 13.4382 7.50098 13.9254C7.50098 14.9476 7.99813 15.3966 10.4254 16.5621C11.4685 17.0589 13.9835 18.2626 16.0111 19.237L19.7057 21.0044L20.3881 20.3548C21.5676 19.2179 21.6066 18.8836 20.7585 16.6672C20.4368 15.8265 20.1736 15.1004 20.1736 15.0622C20.1736 15.0145 20.7975 15.1864 21.5676 15.4539C22.328 15.7214 23.3028 16.0653 23.7414 16.2086L24.531 16.4761L25.0867 15.9984C25.7788 15.3966 26.0225 14.9476 26.0225 14.2693C26.0225 13.6197 25.9348 13.3904 25.2524 12.1198C24.9405 11.5561 23.8584 9.54994 22.8446 7.65838C20.856 3.94214 20.4953 3.42626 19.7349 3.22564C19.0721 3.04412 18.6042 3.10144 18.068 3.40715Z" fill="#640E27"/>
<path d="M40.6449 6.43477C40.0893 7.89643 39.2997 9.9695 38.8903 11.049L38.1396 13.0075L38.8318 13.275C39.8943 13.6857 40.294 13.7526 40.6839 13.5902C41.1226 13.4087 41.2298 13.2367 41.766 11.8133C42.0194 11.1541 42.2534 10.5905 42.2924 10.5427C42.3509 10.4854 43.9983 11.049 44.125 11.1732C44.1445 11.1923 43.9398 11.7942 43.6669 12.4916C43.4037 13.1985 43.1795 13.9246 43.1795 14.1156C43.1795 14.5551 43.4232 14.8608 43.9983 15.1474C44.7782 15.5295 45.6165 15.4053 45.9089 14.8704C46.0259 14.6506 49.1258 6.55896 49.1258 6.47298C49.1258 6.43477 48.7164 6.27236 48.229 6.1004C46.5231 5.51765 46.2501 5.66095 45.5678 7.49519C45.3241 8.16392 45.0901 8.76578 45.0511 8.8231C45.0024 8.90908 44.7392 8.85176 44.125 8.62248C43.6571 8.45052 43.2477 8.27856 43.2185 8.2499C43.1795 8.21169 43.3647 7.63849 43.6279 6.96975C44.1445 5.61318 44.203 5.17373 43.9008 4.77249C43.6961 4.50499 42.5361 3.94135 41.9414 3.8267L41.649 3.76939L40.6449 6.43477Z" fill="#640E27"/>
<path d="M26.0708 4.22747C24.9303 4.63826 24.5111 5.0395 24.5794 5.64136C24.6378 6.05216 27.6793 13.9528 27.8547 14.1247C27.9327 14.1916 29.3852 13.6471 29.7751 13.3987C30.1066 13.1885 30.3308 12.6631 30.2528 12.3096C30.1748 12.023 27.1529 4.24658 27.0261 4.0364C26.9579 3.92176 26.7922 3.95998 26.0708 4.22747Z" fill="#640E27"/>
<path d="M33.4306 14.5927C31.2957 14.822 28.8977 15.6436 27.1138 16.7518C25.5931 17.6975 23.8481 19.2929 22.9026 20.6113L22.4736 21.2036L22.961 21.1463C23.2437 21.1081 23.4874 21.0125 23.5654 20.9075C23.9651 20.3629 24.9789 19.2738 25.4858 18.8439C28.2446 16.4652 31.481 15.2519 35.0488 15.2519C37.3689 15.2519 39.5135 15.7391 41.5118 16.7231C42.0285 16.981 42.4184 17.1052 42.9253 17.153C43.3055 17.2008 43.6369 17.2199 43.6564 17.2008C43.7247 17.1434 42.4184 16.3696 41.5703 15.9684C39.026 14.7742 36.1601 14.2966 33.4306 14.5927Z" fill="#272833"/>
<path d="M52.9287 16.1219C52.6362 16.418 52.2463 17.0008 51.9344 17.5835L51.4275 18.5484L51.3202 17.9466C51.135 16.9721 50.6476 16.5613 49.9457 16.7906C49.1756 17.0294 48.0449 18.5007 47.6062 19.8286L47.4405 20.3349L46.7483 20.2967C45.6663 20.2298 45.0912 19.8477 44.711 18.9592C44.477 18.4147 44.1456 18.2523 42.8393 18.0803C40.373 17.7459 36.6785 17.4689 36.2203 17.5835C35.8109 17.6791 35.7426 18.0134 35.9181 18.9688C36.0059 19.4178 36.1716 20.0674 36.2788 20.4113C36.542 21.2234 36.542 21.1947 36.2593 21.2711C35.8109 21.3858 35.5184 21.2043 35.187 20.5928C34.6801 19.6566 33.91 19.2363 32.7207 19.2458C32.0286 19.2458 31.044 19.6757 30.6541 20.1534C29.8645 21.1087 29.6013 21.2329 28.1488 21.3667C25.8482 21.5673 22.6411 21.959 22.0757 22.0927C21.3543 22.2647 20.3893 22.6946 19.7946 23.1149C19.4145 23.392 19.1805 23.4684 18.2739 23.6117C14.8328 24.1658 12.0838 25.1498 10.1049 26.535C8.85717 27.4044 8.01883 28.4075 6.89779 30.3946C6.00096 31.9709 4.67521 36.1934 4.38276 38.3907C4.03183 41.0752 4.62647 43.2342 6.27391 45.1449C6.46887 45.3742 6.61509 45.613 6.5956 45.6703C6.5566 45.785 6.43963 45.8232 4.64596 46.3869C3.44694 46.769 2.55985 47.132 2.64759 47.2084C2.70607 47.2658 11.6549 44.9252 12.0838 44.7437C12.269 44.6672 13.3901 44.352 14.5696 44.0558C15.7491 43.7501 17.8742 43.2151 19.2975 42.8521C20.7207 42.4891 22.3682 42.0783 22.953 41.9445C23.5477 41.8012 24.1813 41.6102 24.3763 41.5146C24.8929 41.2567 25.1269 41.2854 25.936 41.7248C28.5485 43.1196 30.2837 43.817 32.1943 44.2182C33.6273 44.5144 36.4445 44.5144 37.9165 44.2087C40.5777 43.6546 42.6834 42.661 44.7597 40.9606C46.0757 39.881 47.6062 38.0181 48.9514 35.84C49.3024 35.2859 49.5851 34.9324 49.7703 34.8464C50.5599 34.4643 54.1082 33.4325 59.7524 31.9327C63.2423 31.0155 65.3479 30.3277 66.1472 29.8596C67.4047 29.1144 68.555 27.4808 68.8767 25.9523C69.3739 23.6499 68.3503 21.9685 66.1082 21.3858C65.7086 21.2807 65.3381 21.1469 65.2796 21.0896C65.2016 21.0132 65.2309 20.7839 65.3966 20.2394C65.728 19.1598 65.7963 18.749 65.6988 18.3956C65.4161 17.4498 64.0806 16.9148 62.1407 16.9912L61.0879 17.0294L60.7857 17.402C60.2203 18.109 59.9766 18.2809 59.148 18.5293C57.0717 19.1694 56.0676 19.456 55.8629 19.456C55.7459 19.456 55.5217 19.3414 55.3755 19.1885C55.1415 18.9688 55.0928 18.7968 54.9953 18.0612C54.7711 16.3798 54.3812 15.6347 53.7085 15.6347C53.4746 15.6347 53.2991 15.7397 52.9287 16.1219ZM54.001 16.3512C54.2642 16.6664 54.4786 18.2236 54.3324 18.7682C54.2739 18.9783 54.2349 18.9879 53.3869 18.9688C52.6655 18.9592 52.49 18.9783 52.3925 19.1121C52.3243 19.1981 52.1781 19.2649 52.0514 19.2649C51.8564 19.2649 51.8369 19.2267 51.8856 18.9497C51.9149 18.7873 52.1391 18.2332 52.3828 17.7173C52.9872 16.4754 53.6403 15.9213 54.001 16.3512ZM50.6866 17.7555C50.7451 17.9275 50.8231 18.4147 50.8523 18.835C50.8913 19.4464 50.8621 19.7139 50.7061 20.1534C50.4916 20.7744 50.5794 20.9177 51.0278 20.717C51.252 20.6119 51.252 20.6215 51.1545 20.8985C51.096 21.061 50.9986 21.2138 50.9401 21.2329C50.6769 21.3284 47.9181 21.9303 47.8791 21.9016C47.8011 21.8252 48.464 19.3891 48.698 18.8828C48.9514 18.3287 49.4681 17.7364 49.9457 17.4402C50.2967 17.2301 50.5209 17.3256 50.6866 17.7555ZM64.0709 17.6409C64.646 17.851 65.1139 18.2809 65.1139 18.6057C65.1139 18.7873 65.0652 18.7968 63.9441 18.7299C62.9011 18.6726 62.7549 18.6822 62.5794 18.835C62.3259 19.0643 62.1212 19.733 62.053 20.5928C62.014 20.9845 61.9653 21.3284 61.9458 21.3476C61.9263 21.3762 61.6436 21.3189 61.3316 21.2329C61.0197 21.1469 60.6395 21.0801 60.503 21.0801C60.3471 21.0801 60.2106 21.0132 60.1716 20.9272C60.1131 20.7648 60.3568 19.4942 60.5908 18.7777C60.776 18.2236 61.3316 17.574 61.7313 17.4498C62.1992 17.316 63.447 17.4116 64.0709 17.6409ZM41.3186 18.5866L43.5119 18.7586L43.8141 19.093C44.1748 19.4751 44.5258 20.3731 44.3698 20.526C44.321 20.5737 43.5607 20.6119 42.5371 20.6119C40.9677 20.6024 40.1488 20.6502 38.9303 20.8508L38.5306 20.9081L38.131 20.1152C37.8288 19.5229 37.7605 19.2936 37.8483 19.2363C37.975 19.1503 42.5859 19.2267 43.083 19.3318C43.317 19.37 43.4535 19.5038 43.6777 19.8763C43.9604 20.3349 43.9799 20.1629 43.7167 19.6471C43.4047 19.0548 43.3462 19.0356 41.0554 18.9497C39.8856 18.9115 38.5599 18.8923 38.092 18.9019L37.2439 18.9306L37.7313 19.9814C37.9945 20.5546 38.3552 21.338 38.5306 21.7201C38.9498 22.6468 39.174 22.6659 38.8426 21.7488C38.7646 21.5195 38.7158 21.3189 38.7353 21.2998C38.7548 21.2711 39.0083 21.1947 39.3007 21.1278C40.1781 20.8985 41.884 20.7935 43.4047 20.8603L44.8572 20.9177L44.2138 21.0801C43.4925 21.252 43.1318 21.4813 42.8393 21.9208C42.6639 22.1978 42.5956 22.2169 42.0595 22.236C41.7378 22.2456 40.9482 22.2838 40.3048 22.322C39.2325 22.3793 39.291 22.3889 41.0164 22.3793C42.04 22.3698 42.8881 22.3984 42.8881 22.4271C42.8881 22.4557 42.7613 22.7137 42.5956 23.0098C41.9035 24.2613 41.7378 25.1784 41.65 28.3119C41.5916 30.5761 41.5818 30.7289 41.4063 30.7289C41.2504 30.7289 41.2309 30.6238 41.2114 29.5061C41.1626 26.9172 41.2991 25.5892 41.7768 23.9556C41.8645 23.669 41.8938 23.4111 41.845 23.3633C41.7963 23.3155 41.2991 23.3155 40.685 23.3729C38.3454 23.6021 36.6785 23.7645 36.3178 23.8219L35.9376 23.8792L35.9961 23.392C36.0741 22.7041 36.2885 22.3602 36.698 22.2265C36.9807 22.1405 37.0976 22.1405 37.3511 22.2647C37.5168 22.3507 37.663 22.408 37.6728 22.3984C37.6825 22.3793 37.4388 21.4909 37.1269 20.4113C36.8052 19.3318 36.5518 18.4147 36.5518 18.3669C36.5518 18.2714 38.2284 18.3478 41.3186 18.5866ZM64.9872 19.2936C65.0554 19.3318 65.0067 19.6375 64.8605 20.182C64.7337 20.6311 64.5485 21.5195 64.4413 22.15C64.3341 22.7901 64.2268 23.3155 64.2073 23.3346C64.1878 23.3538 64.0124 23.1436 63.8174 22.8665C63.6127 22.5799 63.213 22.1882 62.9206 21.9781C62.6281 21.7775 62.3649 21.5482 62.3357 21.4813C62.2869 21.3476 62.5891 19.8668 62.7646 19.4178L62.8718 19.1407L63.8759 19.1885C64.4315 19.2076 64.9287 19.2554 64.9872 19.2936ZM58.7776 19.4082C58.7776 19.6184 58.4169 19.905 58.066 19.9623C57.5493 20.0579 54.3422 20.7839 54.157 20.8508C54.0107 20.9081 53.9912 20.8699 54.0205 20.6502C54.0595 20.3349 54.157 20.2776 54.8783 20.1343C55.1708 20.077 56.1358 19.8668 57.0229 19.6566C58.9336 19.2076 58.7776 19.2363 58.7776 19.4082ZM33.6955 20.2298C34.105 20.354 34.7191 21.0227 34.6801 21.2998C34.6509 21.4909 34.5631 21.5195 33.754 21.615C32.9937 21.7106 32.8084 21.7679 32.4868 22.0258C32.0188 22.3889 31.2195 22.7041 30.7516 22.7041C30.4591 22.7041 30.4104 22.6755 30.4104 22.4844C30.4104 22.0354 30.7126 21.2998 31.0538 20.9081C31.7361 20.1152 32.5842 19.905 33.6955 20.2298ZM57.2959 21.0514C57.2666 21.3953 57.2569 21.4049 56.5843 21.615C56.2138 21.7297 55.5899 21.9208 55.2098 22.0258C54.5664 22.2074 54.5176 22.2456 54.5566 22.4557C54.6249 22.7901 54.3812 23.1627 53.6793 23.8219C53.3284 24.1371 52.8605 24.6721 52.6362 24.9969C52.1196 25.7421 51.5834 26.2771 51.1058 26.5064C50.7548 26.6879 47.421 27.6814 46.1147 28.0062C45.0912 28.2642 44.789 27.968 45.0132 26.9267C45.3056 25.551 46.1342 24.4619 47.1578 24.1085C47.6354 23.9365 47.6744 23.8983 47.8109 23.4397C47.8889 23.1722 47.9571 22.9047 47.9571 22.8379C47.9571 22.7614 48.0449 22.6659 48.1521 22.6086C48.4153 22.4748 50.8426 21.9112 52.49 21.6055C54.6541 21.2138 56.2723 20.8985 56.5843 20.803C56.75 20.7552 56.9742 20.7075 57.1009 20.7075C57.3056 20.6979 57.3251 20.7361 57.2959 21.0514ZM46.4851 21.4622C46.7483 21.5959 46.9823 22.2551 46.9823 22.8474V23.3729L46.1342 23.9938C45.1594 24.6912 45.0327 24.8536 44.4088 26.2006C43.8531 27.4044 43.8141 27.8534 44.2528 28.3884C44.4185 28.589 44.5453 28.7801 44.5453 28.8087C44.5453 28.9807 44.0578 30.1939 43.9409 30.3086C43.8726 30.3755 43.5217 30.4614 43.1708 30.4997C42.4007 30.5761 42.2837 30.4901 42.0497 29.7163C41.9132 29.2673 41.9132 28.9616 41.9912 27.5477C42.1375 25.1975 42.4494 23.9078 43.1708 22.685C43.5899 21.9685 43.9409 21.6915 44.5648 21.5673C44.8475 21.5195 45.1691 21.4526 45.2764 21.4335C45.6468 21.3476 46.3097 21.3667 46.4851 21.4622ZM61.1269 21.5386C62.3552 21.8539 63.3008 22.599 63.7687 23.6212C64.0904 24.3377 64.1293 25.7134 63.8466 26.4681C63.5835 27.1464 63.135 27.6528 62.5306 27.9489C61.7215 28.3406 61.3316 27.9776 61.78 27.242C62.1505 26.6497 62.3259 25.9332 62.3259 25.0447C62.3259 24.2995 62.2967 24.1085 62.053 23.583C61.5851 22.599 60.854 22.1023 59.5867 21.9303C59.1675 21.873 58.5534 21.8539 58.222 21.8825C57.871 21.9208 57.6078 21.9112 57.6078 21.8539C57.6078 21.787 58.1537 21.6246 59.1188 21.4335C59.5672 21.338 60.5323 21.3858 61.1269 21.5386ZM66.4494 21.8921C67.1318 22.0927 67.7654 22.6659 68.1553 23.4493C68.4575 24.0416 68.477 24.1562 68.477 25.0447C68.477 25.8949 68.4478 26.0382 68.2528 26.3153C68.1066 26.5159 67.9409 26.621 67.7849 26.621C67.512 26.621 67.5022 26.5732 67.7069 25.8854C67.9311 25.1402 67.8629 24.032 67.5705 23.4684C67.1805 22.7328 66.7126 22.3411 65.9425 22.1118C65.5721 21.9972 65.2211 21.8634 65.1724 21.8252C65.0067 21.6915 65.9328 21.7392 66.4494 21.8921ZM35.6939 23.1054C35.6159 23.4397 35.5379 23.755 35.5282 23.8028C35.5184 23.8601 34.8946 23.9747 34.1537 24.0798C33.4031 24.1753 31.0245 24.5002 28.8507 24.8154C26.6866 25.1211 24.8929 25.3504 24.8637 25.3313C24.7662 25.2262 25.0684 24.1753 25.2634 23.9747C25.5363 23.6881 25.8677 23.6117 27.7296 23.4206C29.845 23.2105 34.9336 22.599 34.9823 22.5513C35.0018 22.5322 35.2065 22.5131 35.4307 22.5131H35.8401L35.6939 23.1054ZM65.4161 22.857C65.806 23.3155 65.1822 25.7994 64.529 26.3822L64.3146 26.5732L64.3828 25.4268C64.4218 24.7963 64.49 24.1371 64.5485 23.9747C64.5973 23.8028 64.6363 23.4779 64.6265 23.2582C64.6168 23.0289 64.6168 22.8188 64.6168 22.771C64.6363 22.6373 65.2894 22.7041 65.4161 22.857ZM60.0644 22.9047C60.4738 22.9907 60.6687 23.1054 60.9904 23.4302C61.9165 24.3664 61.9555 26.086 61.0879 27.7196C60.7077 28.4361 58.9726 30.1557 58.1537 30.6238C56.1066 31.8085 53.7085 31.5792 52.9482 30.1271C52.6167 29.4966 52.5485 28.4935 52.7825 27.7101C53.0749 26.6974 53.4941 26.0669 54.5859 24.9874C55.4535 24.1371 55.7459 23.9078 56.4965 23.5353C57.91 22.8283 58.8751 22.6564 60.0644 22.9047ZM23.0213 23.1818C22.8653 23.4684 22.8653 23.4875 23.0408 23.6117C23.1772 23.7072 23.4892 23.755 24.0546 23.755H24.8734L24.8247 24.0129C24.7857 24.1658 24.7175 24.5384 24.659 24.8632L24.5517 25.4364L23.6549 25.551C22.3389 25.7134 16.9189 26.5923 15.5152 26.8694C14.2869 27.1178 12.6687 27.5381 12.5712 27.6432C12.542 27.6719 12.6297 27.6719 12.7662 27.6432C13.9262 27.347 17.2114 26.6688 18.1667 26.5255C20.594 26.1529 24.464 25.6274 24.4933 25.6752C24.5127 25.6943 24.503 26.2484 24.4543 26.9076C24.4153 27.5668 24.3568 29.4583 24.3373 31.1111L24.2983 34.1204L23.5769 34.5789C22.4559 35.2859 20.2625 36.2985 20.1358 36.1648C20.1163 36.1457 19.9993 35.6011 19.8921 34.9611C19.6874 33.8242 19.2877 32.4963 19.0733 32.3052C19.005 32.2384 18.9953 32.267 19.044 32.4008C19.2487 32.9549 19.7849 35.1903 19.8434 35.7349C19.9116 36.3463 19.9019 36.3654 19.6484 36.4514C19.2097 36.6233 19.1513 36.5278 19.0148 35.3814C18.5956 31.6556 16.3633 29.315 12.9807 29.0475C12.0741 28.9807 11.1675 29.1431 10.0854 29.5921C9.22761 29.936 7.99934 30.7098 7.69714 31.0824C7.29747 31.5792 7.41444 31.2162 7.9116 30.3946C8.55498 29.3437 9.90998 27.9298 10.8945 27.2802C12.6492 26.1338 14.4916 25.4746 17.4941 24.9109L19.5412 24.5288L19.8141 24.8345C19.9993 25.0351 20.0676 25.0734 20.0188 24.9492C19.9019 24.6626 19.9311 24.2613 20.0773 24.0798C20.2625 23.8696 21.1691 23.4397 21.9295 23.2009C22.2804 23.0863 22.6314 22.9812 22.7093 22.9525C22.7873 22.9334 22.9335 22.9047 23.0213 22.9047C23.1772 22.8952 23.1772 22.9143 23.0213 23.1818ZM66.2252 23.3346C67.1025 24.1658 67.161 25.3982 66.4007 26.8598C65.9133 27.7865 64.4413 29.2386 63.5542 29.659C62.8913 29.9647 62.2869 30.1271 62.2869 29.9933C62.2869 29.9551 62.7354 29.6399 63.2813 29.3055C64.607 28.4743 65.5233 27.5572 66.118 26.449C66.4884 25.7516 66.5761 25.5033 66.5761 25.102C66.5761 24.5193 66.4007 24.0703 65.9912 23.583C65.4746 22.9621 65.6403 22.7806 66.2252 23.3346ZM41.4843 23.9652C41.0067 26.2866 40.9189 26.9458 40.8799 28.6272C40.8507 29.6016 40.8117 30.4901 40.7922 30.6047C40.7435 30.8245 40.3048 31.0155 39.8271 31.0155C39.6614 31.0155 38.1212 31.2926 36.4055 31.6365C33.6273 32.181 32.7402 32.3817 31.083 32.8402C30.7028 32.9358 30.5079 32.9358 29.9132 32.8211C29.0651 32.6587 27.9051 32.6683 27.291 32.8211C27.0473 32.888 26.3357 33.1746 25.702 33.4612C25.0781 33.7478 24.542 33.9771 24.5127 33.9771C24.3763 33.9771 24.5127 28.7705 24.7175 26.4108L24.7857 25.6657L25.1366 25.5797C25.3316 25.5224 26.5599 25.36 27.8759 25.1975C33.0229 24.567 35.0603 24.3282 35.265 24.3282C35.46 24.3282 35.4795 24.376 35.4795 24.8059C35.4795 25.2167 35.5087 25.2835 35.6744 25.2835C35.8401 25.2835 35.8694 25.2167 35.8694 24.8154C35.8694 24.5479 35.9181 24.3091 35.9766 24.2709C36.1228 24.1849 40.334 23.6881 41.0262 23.669L41.5526 23.6595L41.4843 23.9652ZM52.4315 27.6719C52.2073 28.3884 52.0903 29.401 52.1878 29.8978C52.2756 30.3468 52.9677 31.092 53.6208 31.4454C54.0497 31.6652 54.2934 31.732 54.9563 31.7607C56.1163 31.818 55.8239 31.9995 54.5664 31.9995C53.7573 31.9995 53.4746 31.9613 53.1237 31.8085C52.1781 31.3881 51.7297 30.6334 51.7199 29.487C51.7102 29.0953 51.7687 28.5985 51.8369 28.3884C51.9636 27.9776 52.529 26.9649 52.5875 27.0222C52.607 27.0413 52.5388 27.3375 52.4315 27.6719ZM49.4681 28.0922C49.6533 28.2164 49.6533 28.2451 49.4876 28.7609C49.3024 29.315 49.0392 29.5825 48.6785 29.5825C48.3763 29.5825 48.1521 29.487 48.1521 29.3533C48.1521 29.2386 48.542 28.2737 48.6687 28.0731C48.776 27.9202 49.2439 27.9298 49.4681 28.0922ZM50.5696 29.9265C50.6086 30.3946 50.4916 30.5092 49.8483 30.6238C49.5851 30.6812 48.1423 30.9773 46.6411 31.3021C45.1399 31.6269 43.5217 31.9709 43.0343 32.0664C42.5566 32.1715 39.6127 32.7829 36.5128 33.4421C33.4031 34.1013 30.8296 34.6171 30.8003 34.598C30.6931 34.5312 30.8393 33.8815 31.0245 33.5281C31.4145 32.8116 32.0871 32.6205 37.6728 31.7225C39.8174 31.3786 42.2544 30.9678 43.083 30.8149C43.9116 30.6621 45.4908 30.385 46.5924 30.1939C47.6939 30.0124 48.9417 29.7832 49.3706 29.6781C50.4527 29.4297 50.5306 29.4488 50.5696 29.9265ZM14.2577 29.9647C15.5737 30.4519 16.5972 31.4072 17.3576 32.8784C17.728 33.6045 17.767 33.7478 17.8158 34.5789C17.8645 35.582 17.7475 36.2317 17.4356 36.6616C17.1334 37.0723 16.1391 37.5118 15.4372 37.5405L14.8621 37.5596L14.7938 36.1743C14.6963 33.9962 14.2772 32.8593 13.1659 31.7702C12.3568 30.9773 11.8596 30.7863 10.6801 30.834C9.95872 30.8722 9.78325 30.92 9.03264 31.283C8.56473 31.5123 8.18455 31.732 8.18455 31.7798C8.18455 31.8371 8.11631 31.8753 8.03833 31.8753C7.80437 31.8753 7.86286 31.7894 8.38926 31.3021C8.92541 30.8054 10.3292 30.0506 11.0115 29.8882C11.2552 29.8309 11.5379 29.7545 11.6452 29.7354C12.1228 29.6207 13.702 29.764 14.2577 29.9647ZM12.2495 32.3052C12.4543 32.3912 12.698 32.525 12.7954 32.6205C13.3316 33.0886 13.8872 34.8273 14.053 36.5183C14.1504 37.5309 14.1407 37.7888 13.9945 38.5245C13.6825 40.1008 12.9222 41.4573 11.7036 42.6037C10.9043 43.368 10.2999 43.6546 9.5493 43.6546C7.43394 43.6546 6.23492 41.9254 6.23492 38.8684C6.23492 35.9259 7.99934 32.8593 10.0367 32.2479C10.4851 32.1142 11.8694 32.1524 12.2495 32.3052ZM30.4396 33.3943C30.5079 33.4612 30.5079 33.6618 30.4396 34.0344C30.3812 34.3688 30.3714 34.7127 30.4299 34.9611C30.6346 35.8973 30.6444 35.8686 30.3519 36.1361C30.1959 36.2699 29.8645 36.4896 29.6013 36.6138C28.7142 37.0628 28.2366 37.1106 24.4445 37.1679C22.4851 37.1965 20.399 37.2539 19.8141 37.2825C18.6833 37.3494 18.6054 37.2921 19.4437 36.9864C19.9993 36.7857 23.6257 35.047 25.4388 34.1108C26.9205 33.3465 27.5932 33.2032 29.2309 33.251C29.8353 33.2797 30.3812 33.337 30.4396 33.3943ZM44.6427 33.872C44.6427 34.0439 41.6695 35.1521 39.4275 35.8304C37.3219 36.4514 32.5745 37.6169 28.6557 38.4576C25.3316 39.1741 20.672 39.9001 19.4047 39.9001H18.6931L18.7516 39.346C18.7906 39.0499 18.8491 38.7155 18.8783 38.62C18.927 38.4385 18.9368 38.4385 19.0635 38.6009C19.278 38.897 19.7654 38.9161 21.637 38.6869C23.9181 38.4194 25.4291 38.1614 27.5834 37.6838C30.6054 37.015 31.4924 36.8526 32.6915 36.7475C34.9043 36.5565 35.5184 36.4514 36.8832 36.031C37.6435 35.8113 39.5542 35.2477 41.1334 34.7891C42.7126 34.3305 44.0773 33.9102 44.1553 33.872C44.3503 33.7669 44.6427 33.7669 44.6427 33.872ZM39.8661 34.1395C39.8661 34.2732 33.2666 36.203 31.6972 36.5374L30.7906 36.7284L30.8588 36.5278C30.8881 36.4132 30.9563 36.2794 30.9953 36.2412C31.0343 36.1934 31.6582 36.0406 32.3795 35.8877C33.0911 35.7444 34.7288 35.3432 36.0156 34.9993C39.369 34.0917 39.8661 33.9771 39.8661 34.1395ZM47.8499 35.5438C47.5964 36.0406 47.9571 35.9068 44.321 36.8908C43.083 37.2252 40.6362 37.8939 38.8913 38.3716C37.1464 38.8493 34.8653 39.4702 33.8223 39.7568C32.7792 40.0339 31.0538 40.5115 30.001 40.7981C28.9384 41.0943 28.0221 41.3331 27.9441 41.3331C27.8759 41.3331 27.6029 41.1994 27.3397 41.037C26.9888 40.8173 26.9011 40.7217 27.0083 40.6644C27.1643 40.5784 27.5444 40.4733 33.1886 38.983C35.4989 38.3716 38.1505 37.6647 39.0863 37.4163C40.0221 37.1679 41.8938 36.6711 43.2293 36.3176C44.5745 35.9642 46.1927 35.5343 46.8361 35.3623C47.4795 35.1903 48.0156 35.0566 48.0351 35.0757C48.0546 35.0853 47.9669 35.2954 47.8499 35.5438ZM25.2439 37.7029C25.4778 37.7697 25.4681 37.7697 25.1464 37.8271C23.4015 38.1328 19.5802 38.5053 19.3755 38.4003C19.2487 38.3334 19.2877 38.0181 19.4242 37.913C19.6484 37.722 24.7077 37.5405 25.2439 37.7029ZM46.4072 37.7697C46.3487 37.8653 46.1829 38.0754 46.0367 38.2474C45.793 38.5149 45.5201 38.6104 43.2293 39.2601C39.7589 40.2441 33.0034 42.1261 31.8629 42.4222L30.9368 42.6706L30.3812 42.4891C29.6208 42.2311 29.5428 42.1738 29.8255 42.0878C29.962 42.0592 31.7849 41.5624 33.871 41.0083C38.1407 39.8619 38.8133 39.6804 43.278 38.4767C45.0229 38.0086 46.4559 37.6169 46.4754 37.6169C46.4851 37.6073 46.4559 37.6838 46.4072 37.7697ZM5.90348 39.3556C5.92297 40.8937 6.40063 42.1356 7.32671 43.0718C8.26254 44.0081 9.28609 44.1896 10.6216 43.6355C11.0213 43.4731 11.3527 43.3584 11.3722 43.3775C11.4794 43.4826 10.7386 44.1323 10.2609 44.3615C9.82224 44.5622 9.56879 44.6195 9.07163 44.6195C7.33646 44.6099 6.19592 43.5686 5.63053 41.486C5.45506 40.8173 5.37708 38.5818 5.5233 38.4385C5.55254 38.4003 5.65002 38.3716 5.73776 38.3716C5.87423 38.3716 5.89373 38.5245 5.90348 39.3556ZM43.6679 40.4256C43.6679 40.4447 43.3755 40.6644 43.0148 40.9032C42.2739 41.3905 42.2447 41.4 38.2187 42.4795C35.6647 43.1578 35.265 43.2438 34.5046 43.2438C34.0367 43.2438 33.6273 43.2151 33.5883 43.1769C33.5493 43.1387 33.793 43.0336 34.1342 42.9476C34.8653 42.7661 36.9417 42.1929 40.6947 41.1516C43.4242 40.3969 43.6679 40.3396 43.6679 40.4256Z" fill="#272833"/>
<path d="M58.4835 23.1821C58.2983 23.2394 58.3666 23.2585 58.776 23.2681C59.4584 23.2776 60.1017 23.5833 60.4137 24.0419C60.6086 24.3285 60.6379 24.4718 60.6086 25.045C60.5599 26.0003 60.1602 26.7742 59.5558 27.0799C59.2634 27.2232 58.9807 27.29 58.7272 27.2709C58.2886 27.2423 58.2983 27.2996 58.4348 26.0959C58.4933 25.5513 58.4835 25.3985 58.3568 25.3029C58.2301 25.1979 58.2106 25.2647 58.1716 25.7806C58.1229 26.4876 57.9279 26.9366 57.3917 27.5289C56.8751 28.1021 56.1732 28.446 55.4129 28.5033C54.9157 28.5415 54.7792 28.5224 54.4868 28.3218C54.0189 28.0161 53.8824 27.7199 53.9604 27.2041C54.0091 26.841 53.9994 26.7933 53.8824 26.8888C53.8044 26.9461 53.6484 27.1849 53.5315 27.4142C52.1862 30.0605 55.6078 31.9043 58.4251 30.0509C60.5307 28.6753 61.7492 26.4016 61.2715 24.7775C60.9108 23.5451 59.6338 22.8191 58.4835 23.1821Z" fill="#272833"/>
<path d="M10.1324 32.6871C9.89847 32.8208 9.90822 32.8208 10.3761 32.8304H10.8635L10.3761 33.1074C9.69376 33.4896 9.12836 33.9959 8.77743 34.5213C8.61171 34.7602 8.47523 34.999 8.47523 35.0372C8.47523 35.0754 8.69944 34.999 8.98214 34.8653C9.39156 34.6742 9.59627 34.636 10.0057 34.6646C10.961 34.7411 11.4777 35.5053 11.5654 36.9479C11.6434 38.2185 11.2047 39.4413 10.3761 40.2247C9.65476 40.9125 8.88466 41.0176 8.15354 40.5208C7.65639 40.196 7.53941 40.3775 7.83185 41.0081C8.52397 42.4697 9.81073 42.9569 11.1852 42.2786C12.2088 41.7819 13.0764 40.5973 13.5345 39.0783C13.7587 38.3236 13.788 37.9701 13.6418 37.693C13.5053 37.4542 13.3006 37.4638 12.6182 37.7217C11.9261 37.9796 11.8871 37.9319 11.8871 36.881C11.8871 36.069 11.7116 35.4098 11.4192 35.0945C11.2047 34.8557 10.4249 34.4736 9.97645 34.378L9.61577 34.3112L9.86922 34.0246C10.2884 33.5278 10.9513 33.2603 11.7701 33.2603C12.6377 33.2699 12.6767 33.1361 11.8968 32.7922C11.2535 32.5151 10.5224 32.4674 10.1324 32.6871Z" fill="#272833"/>
<path d="M10.3972 37.3684C9.71478 37.9607 8.37928 38.3428 7.7164 38.1422C7.42396 38.0466 7.42396 38.3141 7.7164 38.5052C8.10633 38.7727 8.79845 38.6963 9.75377 38.2855L10.6214 37.9033V38.381C10.6214 38.6389 10.6604 38.8491 10.6993 38.8491C10.8456 38.8491 11.0503 38.0849 11.06 37.569C11.06 36.9671 10.9041 36.9193 10.3972 37.3684Z" fill="#272833"/>
<path d="M64.8496 31.2067C64.6644 31.2831 64.6254 31.3691 64.6254 31.7513C64.6254 32.3818 64.4597 33.7192 64.2257 34.9803C62.3736 44.8871 55.4426 53.1412 45.8602 56.8383C43.7156 57.6695 41.7464 58.1853 39.4069 58.5293C37.6814 58.7968 34.1624 58.8923 32.3882 58.7299C24.6286 58.0134 17.6392 54.4977 12.5701 48.7371C11.8683 47.9346 10.6985 46.4538 10.4743 46.0622C10.3963 45.9284 10.2988 45.9093 10.0551 45.9666C9.87964 45.9953 9.74316 46.0717 9.74316 46.129C9.74316 46.4443 11.8293 49.0046 13.2428 50.4376C18.692 55.9403 25.7009 59.0738 33.4702 59.475C40.9861 59.8667 48.2777 57.5453 54.1949 52.8546C55.2769 51.9948 57.4118 49.9217 58.3183 48.8517C61.8472 44.6769 64.138 39.7952 65.0056 34.5695C65.1128 33.939 65.22 33.0505 65.259 32.5824C65.2883 32.1143 65.337 31.5888 65.3663 31.4169C65.415 31.0825 65.2883 31.0348 64.8496 31.2067Z" fill="#272833"/>
<path d="M3.7786 32.2379C2.65756 32.6391 1.75098 33.0117 1.75098 33.0595C1.75098 33.1837 2.64781 33.0499 3.86633 32.7347C4.47072 32.5723 5.04586 32.4481 5.15309 32.4481C5.47478 32.4481 5.86471 32.0468 5.82572 31.7602L5.79647 31.5119L3.7786 32.2379Z" fill="#272833"/>
<path d="M63.2711 31.6944C63.0664 31.7708 51.856 34.8184 50.384 35.1909L49.8381 35.3342L49.3799 36.3182C47.1183 41.1236 42.6927 44.3717 37.2532 45.2124C35.8495 45.4226 33.2077 45.3557 31.843 45.0691C29.7958 44.6296 27.8559 43.8272 26.1598 42.7094L25.2142 42.0789L24.0347 42.3751C21.4514 43.0247 17.1719 44.1138 14.8129 44.7252C13.4481 45.0786 12.0736 45.4321 11.7714 45.5181C11.4595 45.5945 11.2061 45.7092 11.2061 45.7665C11.2061 45.8238 11.5667 46.3397 12.0054 46.9224C14.9201 50.7056 18.9364 53.8104 23.4108 55.7497C27.7195 57.6126 32.7788 58.4438 37.3312 58.0521C46.7674 57.2209 54.9559 52.215 59.752 44.343C61.9746 40.6937 63.3393 36.5953 63.7292 32.3727C63.817 31.5225 63.7877 31.4842 63.2711 31.6944ZM53.6301 37.1207C54.0493 37.7703 54.0103 37.9041 53.1622 38.6875C52.5286 39.2702 52.1484 39.7479 52.1484 39.9389C52.1484 39.9676 52.2556 40.0631 52.3824 40.1396C52.5968 40.2829 52.6456 40.2829 52.9478 40.1396C53.1232 40.044 53.6789 39.6715 54.1858 39.2989L55.0924 38.6206H55.7942C56.3304 38.6206 56.5838 38.6684 56.9055 38.8308C58.436 39.6237 58.8941 41.0758 58.085 42.5852C57.6659 43.359 56.4279 44.601 55.9112 44.7729C55.7065 44.8398 55.4043 44.8589 55.2386 44.8303L54.9364 44.7729L55.2971 45.136C55.921 45.7665 55.8625 45.9098 54.4197 47.4192C52.86 49.0242 52.5481 49.2057 51.9339 48.8044C51.6513 48.6229 46.6602 43.9227 46.6017 43.7889C46.553 43.6552 47.5765 42.6617 47.9372 42.5184C48.2004 42.4037 48.2979 42.4037 48.5708 42.5184C48.7365 42.5852 49.6724 43.3973 50.6374 44.3048C51.6123 45.2219 52.4896 46.0435 52.5968 46.1295C52.7918 46.2919 52.821 46.2728 53.6496 45.3939L54.4977 44.4863L54.3028 44.238C54.1858 44.0947 54.098 43.9131 54.098 43.8272C54.098 43.7316 54.4587 43.3877 54.9071 43.0438C55.843 42.3177 56.2621 41.7732 56.2816 41.2669C56.2914 40.9325 56.2719 40.9038 55.9989 40.8752C55.765 40.8561 55.5603 40.9516 55.0339 41.3528C53.5911 42.461 52.938 42.719 52.1777 42.4801C50.8227 42.0407 49.9941 40.6841 50.2865 39.3849C50.4912 38.4964 51.1541 37.6653 52.3629 36.7959C52.938 36.3756 52.9575 36.366 53.1525 36.5284C53.2597 36.6239 53.4742 36.8914 53.6301 37.1207ZM22.7089 44.0278C23.3815 44.3621 23.4205 44.5819 23.1378 46.4352C23.0111 47.2664 22.9136 47.9733 22.9331 47.9924C22.9526 48.0115 23.2451 47.8109 23.5862 47.5434C24.4636 46.8556 24.951 46.7696 25.5456 47.1708C25.9063 47.4192 26.0525 47.9924 25.9745 48.8713L25.9063 49.5974L27.1638 48.3745C28.3629 47.2281 28.4506 47.1613 28.821 47.1613C29.0745 47.1613 29.3377 47.2473 29.5716 47.4001C29.8348 47.5721 29.9226 47.6007 29.9226 47.4956C29.9226 47.3714 30.0493 47.3619 30.6342 47.4097C32.2134 47.5339 32.3109 47.658 32.2329 49.349L32.1841 50.5718L32.6813 50.6387C32.964 50.6673 33.3247 50.696 33.4904 50.696H33.7926L33.8608 49.5783C33.9388 48.365 34.0558 48.0211 34.4555 47.8491C34.7284 47.7249 35.4985 47.6963 36.0834 47.7918L36.4538 47.8587L36.3953 48.537C36.3661 48.9095 36.2394 50.5814 36.1224 52.2436C35.9177 55.1383 35.8982 55.2912 35.6837 55.5109C35.362 55.8453 34.7284 55.9312 34.1533 55.7115C33.5294 55.4822 33.4904 55.358 33.5684 53.8773L33.6366 52.6067L32.9445 52.5876C32.5741 52.5876 32.2134 52.578 32.1451 52.5685C32.0184 52.5589 32.0184 52.5589 31.9209 53.8486C31.8819 54.4027 31.7942 54.9663 31.7162 55.1001C31.5018 55.5204 30.7804 55.6637 29.7861 55.4918L29.3962 55.4249L29.4254 54.8517C29.4352 54.5364 29.5326 53.1608 29.6301 51.7946C29.7276 50.4285 29.8056 49.3012 29.7861 49.2917C29.7763 49.2726 28.7723 50.2374 27.5732 51.4221C26.3742 52.6067 25.2727 53.6384 25.1265 53.7149C24.7463 53.9059 24.1809 53.8773 23.7422 53.6289L23.3523 53.4187L23.3815 52.1386C23.4108 50.7247 23.4498 50.7724 22.7089 51.3647C21.5391 52.3105 21.1979 52.3965 20.3596 51.9762L19.8624 51.7373L19.9209 51.2883C20.2816 48.8044 20.886 44.9449 20.964 44.7061C21.0907 44.3048 21.6659 43.8176 22.007 43.8176C22.1533 43.8176 22.4749 43.9131 22.7089 44.0278ZM46.5822 44.4386C46.9039 44.9927 46.9624 45.4703 46.7577 45.7474C46.6894 45.8334 46.3482 46.0626 46.0071 46.2537C45.6561 46.4543 45.2759 46.6741 45.159 46.7409L44.9445 46.8747L45.2175 47.3332C45.3734 47.5816 45.5391 47.7727 45.5879 47.7631C45.6366 47.7536 46.1143 47.5052 46.6407 47.1995C47.7032 46.5976 47.5668 46.5785 48.0347 47.3906C48.2491 47.7727 48.3076 48.1548 48.1906 48.451C48.1517 48.537 47.7812 48.7949 47.3621 49.0337C46.9331 49.2726 46.5919 49.5209 46.5919 49.5687C46.5919 49.6834 47.0599 50.5049 47.1281 50.5049C47.1476 50.5049 47.6545 50.2183 48.2589 49.8744C49.4872 49.177 49.4189 49.1675 49.8576 49.9986C50.0526 50.3807 50.1013 50.5718 50.0526 50.7915C49.9746 51.1355 49.8186 51.2405 47.479 52.5589C46.2898 53.2372 45.9681 53.3709 45.8998 53.2659C45.7926 53.0939 44.6618 51.1928 43.0534 48.4701L41.8348 46.397L42.6244 45.9384C43.0631 45.6901 44.0379 45.136 44.7885 44.7061C45.5391 44.2762 46.1825 43.9227 46.2215 43.9227C46.2508 43.9131 46.4165 44.152 46.5822 44.4386ZM41.7666 47.1708C42.0395 48.2408 41.8738 48.4319 40.3726 48.7853C39.6415 48.9573 39.4758 49.0242 39.5148 49.1579C39.544 49.2439 39.6122 49.4923 39.661 49.7025L39.7682 50.1037L40.899 49.8171C41.5229 49.6642 42.0493 49.5592 42.0785 49.5878C42.1565 49.6547 42.4002 50.6387 42.4002 50.868C42.4002 51.2788 41.9421 51.594 41.0647 51.7946C40.6163 51.8902 40.2556 52.0048 40.2556 52.043C40.2556 52.3105 40.4993 53.0843 40.5871 53.0843C40.6456 53.0843 41.2207 52.9506 41.8641 52.8073C42.5075 52.6544 43.0631 52.5589 43.1021 52.5876C43.2191 52.7118 43.4043 53.8104 43.3458 54.0492C43.2581 54.4027 42.8681 54.5556 40.7918 55.0428C39.778 55.2816 38.8616 55.5013 38.7739 55.53C38.6569 55.5682 38.5887 55.5109 38.5497 55.358C38.5205 55.2338 38.0818 53.4665 37.5651 51.4221C37.0582 49.3872 36.6488 47.7058 36.6683 47.6867C36.6975 47.6676 41.3864 46.5212 41.5326 46.5021C41.5716 46.4925 41.6789 46.7982 41.7666 47.1708Z" fill="#640E27"/>
<path d="M3.79653 36.5466C3.71854 36.5943 3.17264 36.7854 2.578 36.986C1.99311 37.1867 1.46671 37.3873 1.40822 37.4255C1.29124 37.5401 1.93462 37.5306 2.92894 37.4159C4.07922 37.2726 4.16696 37.244 4.28393 37.0338C4.50814 36.6326 4.1962 36.3268 3.79653 36.5466Z" fill="#272833"/>
<path d="M1.87663 41.0375C0.99929 41.3336 0.209687 41.6585 0.121954 41.754C-0.0437652 41.9164 -0.0437652 41.926 0.14145 41.8782C0.970045 41.6585 3.05616 41.2381 3.32911 41.2381C3.51432 41.2381 3.74828 41.1808 3.84576 41.1044C4.01148 40.9897 4.02123 40.9324 3.914 40.7222C3.85551 40.5789 3.72878 40.4834 3.6313 40.4834C3.53382 40.493 2.74421 40.7413 1.87663 41.0375Z" fill="#272833"/>
</svg>
