<svg width="589" height="1024" viewBox="0 0 589 1024" fill="none" xmlns="http://www.w3.org/2000/svg">
<rect width="589" height="1024" fill="#640E27"/>
<path d="M57.5619 535.373C54.6229 536.314 52.1056 536.861 50.6772 536.98L57.5619 535.373C66.0086 532.67 77.9392 526.711 77.52 518.289C76.8136 504.097 95.8861 425.871 102.244 422.063C107.33 419.017 95.4152 410.871 88.8222 407.179L87.4095 388.488L96.9457 378.45L111.427 374.297L120.61 372.566L125.554 377.066H128.733L160.521 347.298L155.223 326.53L166.878 313.031L178.887 309.569L191.955 310.954L200.432 317.53L203.257 319.607L239.283 307.492L292.969 298.839L354.424 307.492L386.212 317.53L420.825 336.568L459.323 370.143L490.404 411.679L501.706 420.679L512.302 425.871L519.013 433.832L516.187 449.408L524.311 453.215L535.966 461.176L542.324 472.253V486.444L521.485 511.02L519.013 534.903L488.991 617.975L452.966 662.281L415.174 693.087L376.322 711.778L313.454 725.277L247.76 720.431L205.023 704.855L159.814 676.472L125.554 642.551L116.371 630.09L73.6349 637.013L94.4733 626.975L77.52 584.054C75.5698 568.901 77.2441 561.788 79.1479 556.363C81.6094 549.35 84.4546 545.158 80.3456 530.057L57.5619 535.373Z" fill="#F7F3D0"/>
<path d="M72.1564 560.647C77.0926 557.191 81.453 552.408 83.5186 545.978C88.322 531.025 85.52 556.593 83.5186 571.246C79.2803 569.169 67.6955 565.639 55.263 568.131L56.6389 567.521L72.1564 560.647Z" fill="#F7F3D0"/>
<path d="M287.317 297.246C262.169 298.353 233.914 304.722 211.521 314.276L204.245 317.391L200.925 314.137C194.709 308.045 185.102 304.93 176.908 306.453C164.829 308.599 154.162 319.052 153.032 329.852C152.538 334.421 153.527 339.89 155.787 344.182L157.2 346.881L153.739 349.927C151.831 351.52 148.441 354.15 146.18 355.673C142.719 358.027 136.573 364.465 136.503 365.85C136.432 366.127 134.807 368.134 132.759 370.349L129.015 374.434L124.847 372.565C122.516 371.595 118.56 370.419 115.947 370.003C106.976 368.48 97.5806 372.288 91.1525 380.11C85.1482 387.518 83.2409 394.371 85.2188 401.986C87.1967 409.532 90.0929 413.685 97.0861 419.016L99.064 420.539L96.6623 425.662C88.7507 442.622 82.4639 464.775 79.6383 485.405C78.2255 496.066 77.3072 521.749 78.4375 521.749C78.8613 521.749 80.0622 521.403 81.0511 520.918C82.7464 520.157 82.8171 519.949 82.8171 513.442C82.8171 489.835 87.9737 461.452 96.0972 440.061C99.2053 431.961 104.503 420.054 105.492 418.808C105.987 418.254 105.068 417.285 102.243 415.485C89.0333 406.901 86.7022 393.402 96.6623 382.672C104.079 374.572 113.404 373.326 124.777 378.934L129.721 381.356L131.417 379.418C142.083 367.096 150.489 358.858 162.145 349.235L164.122 347.643L162.356 344.528C159.46 339.405 158.189 333.382 159.107 329.159C160.025 324.729 161.791 321.96 165.888 318.222C172.74 312.06 180.793 310.399 189.27 313.445C192.449 314.552 194.356 315.937 197.747 319.398L202.055 323.829L210.885 320.021C239.282 307.699 265.842 302.299 297.912 302.299C314.866 302.299 326.38 303.338 340.649 306.176C401.116 318.083 454.589 356.019 484.823 408.424C487.366 412.924 488.143 413.755 489.344 413.478C490.121 413.27 491.322 413.062 491.957 413.062C492.876 413.062 492.523 412.024 490.121 407.663C479.666 389.248 464.267 370.003 448.02 355.189C404.224 315.176 346.795 294.477 287.317 297.246Z" fill="#272833"/>
<path d="M287.243 316.425C279.543 318.225 272.55 324.248 270.29 330.894C268.736 335.532 268.736 343.908 270.29 347.577C273.327 354.638 277.424 357.269 290.775 360.523C303.631 363.638 307.093 367.03 301.088 370.422C297.627 372.43 289.503 372.222 280.603 369.938C276.93 368.968 273.327 367.999 272.691 367.722C269.725 366.545 267.888 378.314 270.431 382.537C273.468 387.59 281.592 389.806 295.79 389.39C303.843 389.183 305.468 388.906 308.859 387.383C316.205 383.991 320.09 379.56 321.997 372.084C324.116 364.123 321.644 355.054 316.064 349.931C313.026 347.093 311.967 346.677 302.854 344.324C291.764 341.347 289.009 340.101 288.091 337.401C286.607 333.317 291.835 331.863 301.865 333.732C310.766 335.393 312.602 335.255 314.722 332.832C316.417 330.824 318.395 323.763 317.971 321.34C317.618 319.817 314.227 318.571 305.68 316.771C298.475 315.318 292.47 315.179 287.243 316.425Z" fill="#640E27"/>
<path d="M174.93 321.689C168.29 325.427 165.324 330.689 166.878 336.296C167.301 337.819 171.61 346.403 176.414 355.472C181.217 364.471 185.102 371.948 184.961 372.017C184.82 372.155 180.793 370.84 175.99 369.04C164.829 364.956 159.531 364.402 154.869 366.825C153.103 367.794 150.772 369.871 149.571 371.463C147.664 374.094 147.452 374.925 147.523 379.009C147.593 382.747 148.229 385.239 150.913 391.885C152.75 396.385 154.021 400.262 153.88 400.469C153.668 400.608 145.615 396.939 136.008 392.301C120.609 384.824 117.995 383.716 114.11 383.439C108.954 383.093 105.351 384.686 101.89 388.908C99.2055 392.162 98.3578 394.377 98.3578 397.908C98.3578 405.315 101.96 408.569 119.55 417.015C127.108 420.614 145.333 429.337 160.026 436.398L186.798 449.205L191.742 444.498C200.29 436.26 200.572 433.837 194.427 417.776C192.096 411.684 190.188 406.423 190.188 406.146C190.188 405.8 194.709 407.046 200.29 408.984C205.8 410.923 212.863 413.415 216.042 414.453L221.764 416.391L225.79 412.93C230.806 408.569 232.572 405.315 232.572 400.4C232.572 395.693 231.936 394.031 226.991 384.824C224.731 380.74 216.89 366.202 209.543 352.495C195.133 325.566 192.519 321.827 187.01 320.374C182.206 319.058 178.816 319.474 174.93 321.689Z" fill="#640E27"/>
<path d="M338.528 343.628C334.502 354.22 328.78 369.242 325.813 377.065L320.374 391.257L325.389 393.195C333.089 396.172 335.985 396.656 338.811 395.479C341.99 394.164 342.767 392.918 346.652 382.603C348.488 377.826 350.184 373.742 350.466 373.396C350.89 372.981 362.828 377.065 363.746 377.965C363.888 378.103 362.404 382.465 360.426 387.518C358.519 392.641 356.894 397.902 356.894 399.287C356.894 402.471 358.66 404.687 362.828 406.763C368.479 409.532 374.554 408.633 376.673 404.756C377.521 403.164 399.984 344.528 399.984 343.905C399.984 343.628 397.017 342.452 393.485 341.205C381.124 336.983 379.146 338.021 374.201 351.313C372.435 356.158 370.74 360.52 370.457 360.935C370.104 361.558 368.197 361.143 363.746 359.481C360.356 358.235 357.389 356.989 357.177 356.782C356.894 356.505 358.237 352.351 360.144 347.505C363.888 337.675 364.311 334.49 362.122 331.583C360.638 329.645 352.232 325.56 347.923 324.729L345.804 324.314L338.528 343.628Z" fill="#640E27"/>
<path d="M232.92 327.635C224.656 330.612 221.618 333.52 222.113 337.881C222.536 340.858 244.576 398.109 245.847 399.355C246.412 399.839 256.938 395.893 259.763 394.093C262.165 392.57 263.79 388.763 263.224 386.201C262.659 384.125 240.761 327.774 239.843 326.251C239.349 325.42 238.148 325.697 232.92 327.635Z" fill="#640E27"/>
<path d="M286.252 402.745C270.782 404.407 253.405 410.36 240.478 418.391C229.458 425.244 216.814 436.805 209.962 446.358L206.854 450.65L210.386 450.235C212.434 449.958 214.2 449.266 214.765 448.504C217.662 444.558 225.008 436.667 228.681 433.551C248.672 416.314 272.124 407.522 297.978 407.522C314.79 407.522 330.331 411.053 344.811 418.183C348.555 420.052 351.381 420.952 355.054 421.298C357.809 421.644 360.211 421.783 360.352 421.644C360.847 421.229 351.381 415.622 345.235 412.714C326.799 404.061 306.031 400.599 286.252 402.745Z" fill="#272833"/>
<path d="M427.542 413.825C425.423 415.971 422.597 420.194 420.337 424.417L416.663 431.409L415.886 427.048C414.544 419.987 411.012 417.01 405.926 418.671C400.346 420.402 392.152 431.063 388.973 440.685L387.772 444.354L382.757 444.078C374.916 443.593 370.748 440.824 367.993 434.386C366.298 430.44 363.896 429.263 354.43 428.017C336.559 425.594 309.787 423.586 306.467 424.417C303.5 425.109 303.005 427.532 304.277 434.455C304.913 437.709 306.114 442.416 306.891 444.908C308.798 450.793 308.798 450.585 306.749 451.139C303.5 451.969 301.381 450.654 298.979 446.224C295.306 439.439 289.725 436.393 281.107 436.463C276.092 436.463 268.957 439.578 266.132 443.039C260.41 449.962 258.503 450.862 247.978 451.831C231.307 453.285 208.067 456.123 203.97 457.092C198.742 458.338 191.749 461.454 187.44 464.5C184.685 466.507 182.99 467.061 176.421 468.099C151.485 472.114 131.565 479.245 117.225 489.283C108.183 495.582 102.108 502.851 93.985 517.25C87.4862 528.673 77.8793 559.271 75.7601 575.193C73.2171 594.646 77.5261 610.291 89.4641 624.137C90.8769 625.798 91.9364 627.529 91.7952 627.944C91.5126 628.775 90.6649 629.052 77.6674 633.136C68.9788 635.905 62.5507 638.536 63.1864 639.09C63.6103 639.505 128.457 622.545 131.565 621.229C132.907 620.676 141.03 618.391 149.578 616.245C158.125 614.03 173.524 610.153 183.838 607.522C194.151 604.892 206.089 601.915 210.327 600.946C214.636 599.907 219.228 598.523 220.64 597.831C224.384 595.962 226.08 596.169 231.943 599.354C250.874 609.461 263.448 614.514 277.293 617.422C287.677 619.568 308.091 619.568 318.758 617.353C338.042 613.337 353.3 606.138 368.346 593.815C377.883 585.993 388.973 572.494 398.721 556.71C401.264 552.695 403.313 550.133 404.655 549.51C410.376 546.741 436.089 539.265 476.989 528.396C502.278 521.75 517.536 516.766 523.328 513.374C532.44 507.974 540.776 496.136 543.107 485.06C546.71 468.376 539.292 456.192 523.045 451.969C520.149 451.208 517.465 450.239 517.041 449.823C516.476 449.27 516.688 447.608 517.889 443.662C520.291 435.84 520.785 432.863 520.079 430.301C518.03 423.448 508.353 419.571 494.295 420.125L486.666 420.402L484.477 423.102C480.38 428.225 478.614 429.471 472.609 431.271C457.563 435.909 450.287 437.986 448.804 437.986C447.956 437.986 446.332 437.155 445.272 436.047C443.577 434.455 443.224 433.209 442.517 427.878C440.892 415.694 438.067 410.295 433.193 410.295C431.498 410.295 430.226 411.056 427.542 413.825ZM435.312 415.487C437.219 417.771 438.773 429.055 437.714 433.001C437.29 434.524 437.007 434.593 430.862 434.455C425.634 434.386 424.363 434.524 423.657 435.493C423.162 436.116 422.103 436.601 421.184 436.601C419.771 436.601 419.63 436.324 419.983 434.317C420.195 433.14 421.82 429.125 423.586 425.386C427.966 416.387 432.698 412.372 435.312 415.487ZM411.295 425.663C411.719 426.909 412.284 430.44 412.496 433.486C412.778 437.916 412.566 439.855 411.436 443.039C409.882 447.539 410.518 448.577 413.767 447.124C415.392 446.362 415.392 446.431 414.685 448.439C414.262 449.616 413.555 450.723 413.131 450.862C411.224 451.554 391.233 455.915 390.951 455.708C390.386 455.154 395.189 437.501 396.884 433.832C398.721 429.817 402.465 425.525 405.926 423.379C408.469 421.856 410.094 422.548 411.295 425.663ZM508.282 424.832C512.45 426.355 515.84 429.471 515.84 431.824C515.84 433.14 515.487 433.209 507.364 432.724C499.805 432.309 498.746 432.378 497.474 433.486C495.638 435.147 494.154 439.993 493.66 446.224C493.377 449.062 493.024 451.554 492.883 451.693C492.741 451.9 490.693 451.485 488.432 450.862C486.172 450.239 483.417 449.754 482.428 449.754C481.298 449.754 480.309 449.27 480.026 448.647C479.603 447.47 481.369 438.262 483.064 433.07C484.406 429.055 488.432 424.348 491.329 423.448C494.719 422.479 503.761 423.171 508.282 424.832ZM343.411 431.686L359.305 432.932L361.494 435.355C364.108 438.124 366.651 444.631 365.521 445.739C365.168 446.085 359.658 446.362 352.241 446.362C340.868 446.293 334.934 446.639 326.104 448.093L323.208 448.508L320.312 442.762C318.122 438.47 317.628 436.809 318.263 436.393C319.182 435.77 352.594 436.324 356.196 437.086C357.892 437.363 358.881 438.332 360.505 441.032C362.554 444.354 362.695 443.108 360.788 439.37C358.528 435.078 358.104 434.94 341.504 434.317C333.027 434.04 323.42 433.901 320.029 433.97L313.884 434.178L317.416 441.793C319.323 445.947 321.937 451.623 323.208 454.392C326.246 461.107 327.87 461.246 325.469 454.6C324.903 452.939 324.55 451.485 324.692 451.346C324.833 451.139 326.669 450.585 328.789 450.1C335.146 448.439 347.508 447.677 358.528 448.162L369.053 448.577L364.391 449.754C359.163 451 356.55 452.662 354.43 455.846C353.159 457.854 352.665 457.992 348.779 458.131C346.448 458.2 340.727 458.477 336.064 458.754C328.294 459.169 328.718 459.238 341.221 459.169C348.638 459.1 354.784 459.307 354.784 459.515C354.784 459.723 353.865 461.592 352.665 463.738C347.649 472.807 346.448 479.453 345.813 502.159C345.389 518.566 345.318 519.673 344.047 519.673C342.916 519.673 342.775 518.912 342.634 510.812C342.281 492.052 343.27 482.429 346.731 470.591C347.367 468.515 347.579 466.646 347.225 466.299C346.872 465.953 343.27 465.953 338.819 466.369C321.866 468.03 309.787 469.207 307.173 469.622L304.418 470.038L304.842 466.507C305.407 461.523 306.961 459.031 309.928 458.061C311.977 457.438 312.824 457.438 314.661 458.338C315.862 458.961 316.921 459.377 316.992 459.307C317.063 459.169 315.297 452.731 313.036 444.908C310.705 437.086 308.868 430.44 308.868 430.094C308.868 429.401 321.018 429.955 343.411 431.686ZM514.922 436.809C515.416 437.086 515.063 439.301 514.004 443.247C513.085 446.5 511.743 452.939 510.966 457.508C510.189 462.146 509.412 465.953 509.271 466.092C509.13 466.23 507.858 464.707 506.445 462.7C504.962 460.623 502.066 457.784 499.947 456.261C497.827 454.808 495.92 453.146 495.708 452.662C495.355 451.693 497.545 440.962 498.816 437.709L499.593 435.701L506.869 436.047C510.896 436.186 514.498 436.532 514.922 436.809ZM469.925 437.639C469.925 439.162 467.311 441.239 464.768 441.655C461.025 442.347 437.784 447.608 436.442 448.093C435.383 448.508 435.241 448.231 435.453 446.639C435.736 444.354 436.442 443.939 441.67 442.901C443.789 442.485 450.782 440.962 457.21 439.439C471.055 436.186 469.925 436.393 469.925 437.639ZM288.171 443.593C291.138 444.493 295.588 449.339 295.306 451.346C295.094 452.731 294.458 452.939 288.595 453.631C283.085 454.323 281.743 454.738 279.412 456.608C276.021 459.238 270.229 461.523 266.838 461.523C264.719 461.523 264.366 461.315 264.366 459.931C264.366 456.677 266.556 451.346 269.028 448.508C273.973 442.762 280.118 441.239 288.171 443.593ZM459.188 449.546C458.976 452.039 458.905 452.108 454.031 453.631C451.347 454.462 446.826 455.846 444.071 456.608C439.409 457.923 439.056 458.2 439.338 459.723C439.833 462.146 438.067 464.846 432.981 469.622C430.438 471.907 427.047 475.783 425.423 478.137C421.679 483.537 417.794 487.414 414.332 489.075C411.789 490.39 387.631 497.59 378.165 499.944C370.748 501.813 368.558 499.667 370.183 492.121C372.302 482.152 378.306 474.261 385.724 471.699C389.185 470.453 389.467 470.176 390.456 466.853C391.021 464.915 391.516 462.977 391.516 462.492C391.516 461.938 392.152 461.246 392.929 460.83C394.836 459.861 412.425 455.777 424.363 453.562C440.045 450.723 451.771 448.439 454.031 447.747C455.232 447.4 456.857 447.054 457.775 447.054C459.259 446.985 459.4 447.262 459.188 449.546ZM380.849 452.523C382.757 453.492 384.452 458.269 384.452 462.561V466.369L378.306 470.868C371.243 475.922 370.324 477.099 365.803 486.86C361.777 495.582 361.494 498.836 364.673 502.713C365.874 504.167 366.792 505.551 366.792 505.759C366.792 507.005 363.26 515.797 362.413 516.627C361.918 517.112 359.375 517.735 356.832 518.012C351.252 518.566 350.404 517.943 348.709 512.335C347.72 509.082 347.72 506.866 348.285 496.621C349.344 479.591 351.605 470.245 356.832 461.384C359.87 456.192 362.413 454.185 366.934 453.285C368.982 452.939 371.313 452.454 372.09 452.316C374.774 451.693 379.578 451.831 380.849 452.523ZM486.949 453.077C495.85 455.362 502.701 460.761 506.092 468.169C508.423 473.361 508.706 483.329 506.657 488.798C504.75 493.713 501.501 497.382 497.121 499.528C491.258 502.367 488.432 499.736 491.682 494.406C494.366 490.113 495.638 484.921 495.638 478.483C495.638 473.084 495.426 471.699 493.66 467.892C490.269 460.761 484.971 457.161 475.788 455.915C472.751 455.5 468.3 455.362 465.899 455.569C463.356 455.846 461.448 455.777 461.448 455.362C461.448 454.877 465.404 453.7 472.397 452.316C475.647 451.623 482.64 451.969 486.949 453.077ZM525.518 455.638C530.463 457.092 535.054 461.246 537.88 466.922C540.069 471.215 540.211 472.045 540.211 478.483C540.211 484.645 539.999 485.683 538.586 487.691C537.526 489.144 536.326 489.906 535.195 489.906C533.217 489.906 533.147 489.56 534.63 484.575C536.255 479.176 535.76 471.145 533.641 467.061C530.816 461.73 527.425 458.892 521.845 457.231C519.16 456.4 516.617 455.431 516.264 455.154C515.063 454.185 521.774 454.531 525.518 455.638ZM302.652 464.43C302.087 466.853 301.522 469.138 301.451 469.484C301.381 469.899 296.86 470.73 291.491 471.491C286.052 472.184 268.816 474.537 253.064 476.822C237.382 479.037 224.384 480.699 224.172 480.56C223.466 479.799 225.656 472.184 227.069 470.73C229.046 468.653 231.448 468.099 244.94 466.715C260.269 465.192 297.142 460.761 297.496 460.415C297.637 460.277 299.12 460.138 300.745 460.138H303.712L302.652 464.43ZM518.03 462.63C520.856 465.953 516.335 483.952 511.602 488.175L510.048 489.56L510.542 481.252C510.825 476.683 511.319 471.907 511.743 470.73C512.096 469.484 512.379 467.13 512.308 465.538C512.238 463.876 512.238 462.353 512.238 462.007C512.379 461.038 517.112 461.523 518.03 462.63ZM479.249 462.977C482.216 463.6 483.629 464.43 485.96 466.784C492.671 473.568 492.953 486.029 486.666 497.867C483.912 503.059 471.338 515.52 465.404 518.912C450.57 527.496 433.193 525.835 427.683 515.312C425.281 510.743 424.787 503.474 426.482 497.798C428.601 490.46 431.639 485.891 439.55 478.068C445.837 471.907 447.956 470.245 453.396 467.545C463.638 462.423 470.631 461.177 479.249 462.977ZM210.822 464.984C209.691 467.061 209.691 467.199 210.963 468.099C211.952 468.792 214.212 469.138 218.309 469.138H224.243L223.89 471.007C223.607 472.114 223.113 474.814 222.689 477.168L221.912 481.322L215.413 482.152C205.877 483.329 166.602 489.698 156.43 491.706C147.529 493.506 135.803 496.552 135.097 497.313C134.885 497.521 135.521 497.521 136.51 497.313C144.916 495.167 168.721 490.252 175.644 489.214C193.233 486.514 221.276 482.706 221.488 483.052C221.629 483.191 221.559 487.206 221.206 491.983C220.923 496.759 220.499 510.466 220.358 522.442L220.075 544.249L214.848 547.572C206.725 552.695 190.831 560.033 189.913 559.064C189.771 558.925 188.924 554.979 188.147 550.341C186.663 542.103 183.767 532.48 182.213 531.096C181.718 530.611 181.648 530.819 182.001 531.788C183.484 535.803 187.37 552.002 187.793 555.948C188.288 560.379 188.217 560.517 186.381 561.14C183.202 562.386 182.778 561.694 181.789 553.387C178.752 526.388 162.575 509.428 138.064 507.489C131.494 507.005 124.925 508.182 117.084 511.435C110.868 513.928 101.967 519.535 99.7774 522.235C96.8812 525.835 97.7288 523.204 101.331 517.25C105.994 509.635 115.812 499.39 122.947 494.682C135.662 486.375 149.013 481.599 170.769 477.514L185.604 474.745L187.581 476.96C188.924 478.414 189.418 478.691 189.065 477.791C188.217 475.714 188.429 472.807 189.489 471.491C190.831 469.968 197.4 466.853 202.91 465.123C205.453 464.292 207.996 463.53 208.561 463.323C209.126 463.184 210.186 462.977 210.822 462.977C211.952 462.907 211.952 463.046 210.822 464.984ZM523.893 466.092C530.251 472.114 530.674 481.045 525.165 491.636C521.633 498.351 510.966 508.874 504.538 511.92C499.735 514.135 495.355 515.312 495.355 514.343C495.355 514.066 498.604 511.782 502.56 509.359C512.167 503.336 518.807 496.69 523.116 488.66C525.8 483.606 526.436 481.806 526.436 478.899C526.436 474.676 525.165 471.422 522.198 467.892C518.454 463.392 519.655 462.077 523.893 466.092ZM344.612 470.661C341.15 487.483 340.515 492.26 340.232 504.443C340.02 511.505 339.738 517.943 339.596 518.773C339.243 520.366 336.064 521.75 332.603 521.75C331.402 521.75 320.241 523.758 307.809 526.25C287.677 530.196 281.249 531.65 269.24 534.973C266.485 535.665 265.072 535.665 260.763 534.834C254.618 533.657 246.212 533.726 241.761 534.834C239.996 535.319 234.839 537.395 230.247 539.472C225.726 541.549 221.841 543.211 221.629 543.211C220.64 543.211 221.629 505.482 223.113 488.383L223.607 482.983L226.15 482.36C227.563 481.945 236.464 480.768 246 479.591C283.297 475.022 298.061 473.291 299.544 473.291C300.957 473.291 301.098 473.637 301.098 476.753C301.098 479.729 301.31 480.214 302.511 480.214C303.712 480.214 303.924 479.729 303.924 476.822C303.924 474.884 304.277 473.153 304.701 472.876C305.76 472.253 336.276 468.653 341.292 468.515L345.106 468.445L344.612 470.661ZM423.939 497.521C422.314 502.713 421.467 510.051 422.173 513.651C422.809 516.904 427.824 522.304 432.557 524.865C435.665 526.458 437.431 526.942 442.235 527.15C450.641 527.565 448.521 528.881 439.409 528.881C433.546 528.881 431.498 528.604 428.955 527.496C422.103 524.45 418.853 518.981 418.783 510.674C418.712 507.836 419.136 504.236 419.63 502.713C420.548 499.736 424.646 492.398 425.069 492.813C425.211 492.952 424.716 495.098 423.939 497.521ZM402.465 500.567C403.807 501.467 403.807 501.674 402.606 505.413C401.264 509.428 399.357 511.366 396.743 511.366C394.553 511.366 392.929 510.674 392.929 509.705C392.929 508.874 395.754 501.882 396.673 500.428C397.45 499.321 400.84 499.39 402.465 500.567ZM410.447 513.858C410.73 517.25 409.882 518.081 405.22 518.912C403.313 519.327 392.858 521.473 381.98 523.827C371.101 526.181 359.375 528.673 355.843 529.365C352.382 530.127 331.049 534.557 308.586 539.334C286.052 544.111 267.403 547.849 267.191 547.71C266.414 547.226 267.474 542.518 268.816 539.957C271.642 534.765 276.516 533.38 316.992 526.873C332.532 524.381 350.192 521.404 356.196 520.296C362.201 519.189 373.644 517.181 381.626 515.797C389.609 514.481 398.65 512.82 401.759 512.058C409.599 510.259 410.165 510.397 410.447 513.858ZM147.317 514.135C156.854 517.666 164.271 524.589 169.78 535.249C172.465 540.511 172.747 541.549 173.101 547.572C173.454 554.841 172.606 559.548 170.346 562.663C168.156 565.64 160.951 568.825 155.865 569.032L151.697 569.171L151.202 559.133C150.496 543.349 147.459 535.111 139.406 527.219C133.543 521.473 129.94 520.089 121.393 520.435C116.166 520.712 114.894 521.058 109.455 523.689C106.064 525.35 103.309 526.942 103.309 527.288C103.309 527.704 102.815 527.981 102.25 527.981C100.554 527.981 100.978 527.358 104.793 523.827C108.678 520.227 118.85 514.758 123.795 513.581C125.561 513.166 127.609 512.612 128.386 512.474C131.847 511.643 143.291 512.681 147.317 514.135ZM132.766 531.096C134.249 531.719 136.015 532.688 136.721 533.38C140.607 536.772 144.633 549.372 145.834 561.625C146.54 568.963 146.47 570.832 145.41 576.163C143.15 587.585 137.64 597.415 128.81 605.723C123.018 611.261 118.638 613.337 113.199 613.337C97.8701 613.337 89.1815 600.807 89.1815 578.655C89.1815 557.333 101.967 535.111 116.731 530.68C119.98 529.711 130.011 529.988 132.766 531.096ZM264.578 538.988C265.072 539.472 265.072 540.926 264.578 543.626C264.154 546.049 264.083 548.541 264.507 550.341C265.991 557.125 266.061 556.918 263.942 558.856C262.812 559.825 260.41 561.417 258.503 562.317C252.075 565.571 248.613 565.917 221.135 566.332C206.937 566.54 191.82 566.955 187.581 567.163C179.387 567.648 178.822 567.232 184.897 565.017C188.924 563.563 215.201 550.964 228.34 544.18C239.077 538.642 243.951 537.603 255.819 537.949C260.198 538.157 264.154 538.572 264.578 538.988ZM367.499 542.449C367.499 543.695 345.954 551.725 329.707 556.641C314.449 561.14 280.048 569.586 251.651 575.678C227.563 580.87 193.798 586.131 184.615 586.131H179.458L179.882 582.116C180.164 579.97 180.588 577.547 180.8 576.855C181.153 575.54 181.224 575.54 182.142 576.716C183.696 578.862 187.228 579.001 200.791 577.339C217.32 575.401 228.269 573.532 243.881 570.071C265.779 565.225 272.207 564.048 280.895 563.286C296.93 561.902 301.381 561.14 311.27 558.094C316.78 556.502 330.625 552.418 342.069 549.095C353.512 545.772 363.402 542.726 363.967 542.449C365.38 541.688 367.499 541.688 367.499 542.449ZM332.886 544.387C332.886 545.357 285.063 559.34 273.69 561.763L267.121 563.148L267.615 561.694C267.827 560.863 268.322 559.894 268.604 559.617C268.887 559.271 273.408 558.164 278.635 557.056C283.792 556.018 295.659 553.11 304.983 550.618C329.283 544.041 332.886 543.211 332.886 544.387ZM390.739 554.564C388.902 558.164 391.516 557.194 365.168 564.325C356.196 566.748 338.466 571.594 325.822 575.055C313.177 578.516 296.648 583.016 289.09 585.093C281.531 587.1 269.028 590.562 261.399 592.639C253.699 594.785 247.059 596.515 246.494 596.515C246 596.515 244.022 595.546 242.115 594.369C239.572 592.777 238.936 592.085 239.713 591.669C240.843 591.046 243.598 590.285 284.498 579.485C301.239 575.055 320.453 569.932 327.235 568.132C334.016 566.332 347.579 562.733 357.256 560.171C367.004 557.61 378.73 554.495 383.392 553.248C388.055 552.002 391.94 551.033 392.081 551.172C392.222 551.241 391.587 552.764 390.739 554.564ZM226.927 570.209C228.623 570.694 228.552 570.694 226.221 571.109C213.577 573.324 185.886 576.024 184.403 575.263C183.484 574.778 183.767 572.494 184.756 571.732C186.381 570.348 223.042 569.032 226.927 570.209ZM380.284 570.694C379.86 571.386 378.66 572.909 377.6 574.155C375.834 576.093 373.856 576.786 357.256 581.493C332.109 588.623 283.156 602.261 274.891 604.407L268.18 606.207L264.154 604.892C258.644 603.023 258.079 602.607 260.128 601.984C261.117 601.777 274.326 598.177 289.443 594.162C320.383 585.854 325.257 584.539 357.609 575.816C370.254 572.424 380.638 569.586 380.779 569.586C380.849 569.517 380.638 570.071 380.284 570.694ZM86.7798 582.185C86.9211 593.331 90.3824 602.33 97.0931 609.115C103.874 615.899 111.291 617.214 120.969 613.199C123.865 612.022 126.267 611.191 126.408 611.33C127.185 612.091 121.817 616.799 118.355 618.46C115.177 619.914 113.34 620.329 109.737 620.329C97.1637 620.26 88.899 612.714 84.8019 597.623C83.5304 592.777 82.9653 576.578 84.0249 575.54C84.2368 575.263 84.9432 575.055 85.5789 575.055C86.5679 575.055 86.7092 576.163 86.7798 582.185ZM360.435 589.939C360.435 590.077 358.316 591.669 355.702 593.4C350.333 596.931 350.122 597 320.948 604.823C302.44 609.738 299.544 610.361 294.034 610.361C290.644 610.361 287.677 610.153 287.394 609.876C287.112 609.599 288.878 608.838 291.35 608.215C296.648 606.899 311.694 602.746 338.89 595.2C358.669 589.731 360.435 589.316 360.435 589.939Z" fill="#272833"/>
<path d="M467.8 464.986C466.458 465.401 466.952 465.54 469.919 465.609C474.864 465.678 479.526 467.894 481.786 471.217C483.199 473.293 483.411 474.332 483.199 478.485C482.846 485.408 479.95 491.015 475.57 493.231C473.451 494.269 471.402 494.754 469.566 494.615C466.387 494.408 466.458 494.823 467.446 486.1C467.87 482.154 467.8 481.047 466.881 480.354C465.963 479.593 465.822 480.078 465.539 483.816C465.186 488.939 463.773 492.192 459.888 496.484C456.144 500.638 451.058 503.13 445.548 503.545C441.946 503.822 440.957 503.684 438.838 502.23C435.447 500.015 434.458 497.869 435.023 494.131C435.376 491.5 435.306 491.154 434.458 491.846C433.893 492.262 432.763 493.992 431.915 495.654C422.167 514.829 446.961 528.19 467.376 514.76C482.634 504.792 491.464 488.316 488.002 476.547C485.389 467.617 476.135 462.355 467.8 464.986Z" fill="#272833"/>
<path d="M117.419 533.863C115.724 534.832 115.794 534.832 119.185 534.901H122.717L119.185 536.909C114.24 539.678 110.143 543.347 107.6 547.155C106.399 548.885 105.41 550.616 105.41 550.893C105.41 551.17 107.035 550.616 109.083 549.647C112.05 548.262 113.534 547.985 116.501 548.193C123.423 548.747 127.167 554.285 127.803 564.738C128.368 573.945 125.189 582.806 119.185 588.483C113.958 593.467 108.377 594.229 103.079 590.629C99.4766 588.275 98.6289 589.591 100.748 594.16C105.763 604.751 115.088 608.282 125.048 603.367C132.465 599.767 138.752 591.183 142.072 580.176C143.697 574.707 143.908 572.146 142.849 570.138C141.86 568.407 140.376 568.476 135.432 570.346C130.416 572.215 130.134 571.869 130.134 564.254C130.134 558.369 128.862 553.593 126.743 551.308C125.189 549.578 119.538 546.808 116.289 546.116L113.675 545.632L115.512 543.555C118.549 539.955 123.353 538.017 129.286 538.017C135.573 538.086 135.856 537.117 130.204 534.625C125.542 532.617 120.244 532.271 117.419 533.863Z" fill="#272833"/>
<path d="M119.344 567.786C114.399 572.078 104.721 574.847 99.9179 573.394C97.7988 572.701 97.7988 574.64 99.9179 576.024C102.743 577.963 107.759 577.409 114.681 574.432L120.968 571.663V575.124C120.968 576.993 121.251 578.516 121.533 578.516C122.593 578.516 124.076 572.978 124.147 569.24C124.147 564.879 123.017 564.533 119.344 567.786Z" fill="#272833"/>
<path d="M513.922 523.136C512.58 523.69 512.297 524.313 512.297 527.082C512.297 531.651 511.096 541.342 509.401 550.48C495.98 622.269 445.755 682.081 376.317 708.872C360.777 714.894 346.508 718.633 329.555 721.125C317.051 723.063 291.551 723.756 278.695 722.579C222.466 717.387 171.818 691.911 135.086 650.167C130 644.352 121.523 633.622 119.898 630.784C119.333 629.815 118.627 629.676 116.861 630.091C115.589 630.299 114.6 630.853 114.6 631.268C114.6 633.553 129.717 652.106 139.96 662.49C179.447 702.364 230.236 725.071 286.535 727.978C340.998 730.817 393.836 713.995 436.714 680.004C444.555 673.774 460.025 658.751 466.594 650.998C492.165 620.746 508.765 585.371 515.052 547.504C515.829 542.935 516.606 536.497 516.889 533.104C517.101 529.712 517.454 525.905 517.666 524.659C518.019 522.236 517.101 521.89 513.922 523.136Z" fill="#272833"/>
<path d="M71.3784 530.609C63.255 533.516 56.6855 536.216 56.6855 536.562C56.6855 537.462 63.1843 536.493 72.0142 534.208C76.3938 533.032 80.5615 532.132 81.3385 532.132C83.6696 532.132 86.4952 529.224 86.2126 527.147L86.0007 525.347L71.3784 530.609Z" fill="#272833"/>
<path d="M502.486 526.67C501.002 527.224 419.768 549.307 409.101 552.007L405.145 553.046L401.825 560.176C385.437 594.997 353.367 618.534 313.951 624.626C303.779 626.149 284.635 625.665 274.746 623.588C259.912 620.403 245.855 614.588 233.564 606.489L226.712 601.92L218.164 604.066C199.445 608.773 168.434 616.665 151.34 621.096C141.45 623.657 131.49 626.218 129.301 626.842C127.04 627.395 125.203 628.226 125.203 628.641C125.203 629.057 127.817 632.795 130.996 637.018C152.117 664.432 181.22 686.931 213.643 700.984C244.866 714.483 281.527 720.506 314.516 717.667C382.894 711.645 442.231 675.37 476.985 618.327C493.091 591.882 502.98 562.184 505.806 531.585C506.441 525.424 506.23 525.147 502.486 526.67ZM432.624 565.991C435.661 570.698 435.379 571.668 429.233 577.344C424.642 581.567 421.887 585.028 421.887 586.413C421.887 586.621 422.664 587.313 423.582 587.867C425.136 588.905 425.489 588.905 427.679 587.867C428.951 587.174 432.977 584.475 436.65 581.775L443.22 576.86H448.306C452.191 576.86 454.027 577.206 456.359 578.383C467.449 584.128 470.769 594.651 464.906 605.589C461.868 611.196 452.897 620.196 449.153 621.442C447.67 621.926 445.48 622.065 444.279 621.857L442.089 621.442L444.703 624.072C449.224 628.641 448.8 629.68 438.346 640.618C427.043 652.248 424.783 653.563 420.333 650.656C418.284 649.34 382.117 615.281 381.693 614.311C381.34 613.342 388.757 606.143 391.371 605.104C393.278 604.274 393.984 604.274 395.962 605.104C397.163 605.589 403.944 611.473 410.938 618.05C418.002 624.696 424.359 630.649 425.136 631.272C426.549 632.449 426.761 632.31 432.765 625.942L438.911 619.365L437.498 617.565C436.65 616.527 436.015 615.211 436.015 614.588C436.015 613.896 438.628 611.404 441.878 608.912C448.659 603.651 451.696 599.705 451.838 596.036C451.908 593.613 451.767 593.405 449.789 593.197C448.094 593.059 446.61 593.751 442.796 596.659C432.341 604.689 427.609 606.558 422.099 604.827C412.28 601.643 406.276 591.813 408.395 582.398C409.878 575.96 414.682 569.937 423.441 563.637C427.609 560.591 427.75 560.522 429.163 561.699C429.94 562.391 431.494 564.33 432.624 565.991ZM208.557 616.042C213.431 618.465 213.714 620.057 211.665 633.487C210.747 639.51 210.041 644.633 210.182 644.771C210.323 644.91 212.442 643.456 214.915 641.518C221.272 636.533 224.804 635.91 229.113 638.818C231.727 640.618 232.786 644.771 232.221 651.14L231.727 656.401L240.839 647.54C249.528 639.233 250.164 638.749 252.848 638.749C254.685 638.749 256.592 639.372 258.287 640.479C260.194 641.725 260.83 641.933 260.83 641.172C260.83 640.272 261.748 640.202 265.987 640.548C277.43 641.448 278.137 642.348 277.572 654.602L277.218 663.463L280.821 663.947C282.869 664.155 285.483 664.363 286.684 664.363H288.874L289.368 656.263C289.933 647.471 290.781 644.979 293.677 643.733C295.655 642.833 301.236 642.625 305.474 643.318L308.158 643.802L307.734 648.717C307.522 651.417 306.604 663.532 305.756 675.577C304.273 696.553 304.132 697.661 302.578 699.253C300.247 701.676 295.655 702.299 291.487 700.707C286.967 699.045 286.684 698.145 287.249 687.415L287.744 678.208L282.728 678.069C280.044 678.069 277.43 678 276.936 677.931C276.017 677.862 276.017 677.862 275.311 687.207C275.029 691.223 274.393 695.307 273.828 696.276C272.274 699.322 267.046 700.361 259.841 699.114L257.016 698.63L257.228 694.476C257.298 692.192 258.005 682.223 258.711 672.324C259.417 662.424 259.982 654.255 259.841 654.186C259.771 654.048 252.495 661.04 243.806 669.624C235.118 678.208 227.135 685.684 226.076 686.238C223.321 687.623 219.224 687.415 216.045 685.615L213.22 684.092L213.431 674.816C213.643 664.57 213.926 664.916 208.557 669.208C200.081 676.062 197.608 676.685 191.533 673.639L187.931 671.908L188.355 668.655C190.968 650.656 195.348 622.688 195.913 620.957C196.831 618.05 200.999 614.519 203.471 614.519C204.531 614.519 206.862 615.211 208.557 616.042ZM381.552 619.019C383.883 623.034 384.307 626.495 382.823 628.503C382.329 629.126 379.857 630.787 377.384 632.172C374.841 633.626 372.086 635.218 371.239 635.703L369.685 636.672L371.663 639.995C372.793 641.795 373.994 643.179 374.347 643.11C374.7 643.041 378.161 641.241 381.976 639.025C389.675 634.664 388.686 634.526 392.077 640.41C393.631 643.179 394.055 645.948 393.207 648.094C392.925 648.717 390.241 650.586 387.203 652.317C384.095 654.048 381.623 655.848 381.623 656.194C381.623 657.024 385.013 662.978 385.508 662.978C385.649 662.978 389.322 660.901 393.702 658.409C402.602 653.355 402.108 653.286 405.287 659.309C406.699 662.078 407.053 663.463 406.699 665.055C406.134 667.547 405.004 668.308 388.051 677.862C379.433 682.777 377.102 683.746 376.607 682.985C375.83 681.739 367.636 667.962 355.981 648.233L347.151 633.21L352.873 629.888C356.051 628.088 363.115 624.072 368.554 620.957C373.994 617.842 378.656 615.281 378.938 615.281C379.15 615.211 380.351 616.942 381.552 619.019ZM346.656 638.818C348.634 646.571 347.433 647.956 336.555 650.517C331.257 651.763 330.056 652.248 330.339 653.217C330.551 653.84 331.045 655.64 331.398 657.163L332.175 660.07L340.369 657.994C344.89 656.886 348.705 656.125 348.917 656.332C349.482 656.817 351.248 663.947 351.248 665.609C351.248 668.585 347.928 670.87 341.57 672.324C338.321 673.016 335.707 673.847 335.707 674.124C335.707 676.062 337.473 681.669 338.109 681.669C338.533 681.669 342.701 680.7 347.363 679.662C352.025 678.554 356.051 677.862 356.334 678.069C357.182 678.969 358.524 686.931 358.1 688.661C357.464 691.223 354.639 692.33 339.592 695.861C332.246 697.592 325.606 699.184 324.97 699.391C324.123 699.668 323.628 699.253 323.346 698.145C323.134 697.245 319.955 684.438 316.211 669.624C312.538 654.878 309.571 642.695 309.712 642.556C309.924 642.418 343.901 634.11 344.961 633.972C345.244 633.903 346.021 636.118 346.656 638.818Z" fill="#640E27"/>
<path d="M71.5107 561.831C70.9456 562.178 66.9898 563.562 62.6808 565.016C58.4425 566.47 54.628 567.923 54.2042 568.2C53.3565 569.031 58.0187 568.962 65.2238 568.131C73.5592 567.093 74.195 566.885 75.0427 565.362C76.6673 562.454 74.4069 560.239 71.5107 561.831Z" fill="#272833"/>
<path d="M57.5987 594.371C51.2412 596.517 45.5195 598.871 44.8837 599.563C43.6829 600.74 43.6829 600.809 45.025 600.463C51.0293 598.871 66.146 595.825 68.1239 595.825C69.466 595.825 71.1614 595.41 71.8678 594.856C73.0686 594.025 73.1393 593.61 72.3622 592.087C71.9384 591.048 71.0201 590.356 70.3137 590.356C69.6073 590.425 63.8856 592.225 57.5987 594.371Z" fill="#272833"/>
</svg>
