<svg width="29" height="29" viewBox="0 0 29 29" fill="none" xmlns="http://www.w3.org/2000/svg">
<path d="M14.5 3.625C20.4813 3.625 25.375 8.51875 25.375 14.5C25.375 20.4813 20.4813 25.375 14.5 25.375C8.51875 25.375 3.625 20.4813 3.625 14.5C3.625 8.51875 8.51875 3.625 14.5 3.625ZM14.5 1.8125C7.52188 1.8125 1.8125 7.52188 1.8125 14.5C1.8125 21.4781 7.52188 27.1875 14.5 27.1875C21.4781 27.1875 27.1875 21.4781 27.1875 14.5C27.1875 7.52188 21.4781 1.8125 14.5 1.8125Z" fill="black"/>
<path d="M21.75 13.5938H15.4062V7.25H13.5938V13.5938H7.25V15.4062H13.5938V21.75H15.4062V15.4062H21.75V13.5938Z" fill="#272833"/>
</svg>
