<svg width="70" height="70" viewBox="0 0 70 70" fill="none" xmlns="http://www.w3.org/2000/svg">
<path fill-rule="evenodd" clip-rule="evenodd" d="M47.6415 8.02087H22.3569C13.5457 8.02087 8.02148 14.2596 8.02148 23.0884V46.9117C8.02148 55.7405 13.5165 61.9792 22.3569 61.9792H47.6386C56.479 61.9792 61.9798 55.7405 61.9798 46.9117V23.0884C61.9798 14.2596 56.479 8.02087 47.6415 8.02087Z" fill="#3A57E8" fill-opacity="0.5"/>
<path d="M27.4688 35.9062C28.6337 35.9062 29.5781 34.9619 29.5781 33.7969C29.5781 32.6319 28.6337 31.6875 27.4688 31.6875C26.3038 31.6875 25.3594 32.6319 25.3594 33.7969C25.3594 34.9619 26.3038 35.9062 27.4688 35.9062Z" fill="#344ED1"/>
<path d="M28.875 28.875H26.0625V23.25H28.875C29.6209 23.25 30.3363 22.9537 30.8637 22.4262C31.3912 21.8988 31.6875 21.1834 31.6875 20.4375C31.6875 19.6916 31.3912 18.9762 30.8637 18.4488C30.3363 17.9213 29.6209 17.625 28.875 17.625H26.0625C25.3168 17.6257 24.6019 17.9223 24.0746 18.4496C23.5473 18.9769 23.2507 19.6918 23.25 20.4375V21.1406H20.4375V20.4375C20.4394 18.9462 21.0326 17.5166 22.0871 16.4621C23.1416 15.4076 24.5712 14.8144 26.0625 14.8125H28.875C30.3668 14.8125 31.7976 15.4051 32.8525 16.46C33.9074 17.5149 34.5 18.9457 34.5 20.4375C34.5 21.9293 33.9074 23.3601 32.8525 24.415C31.7976 25.4699 30.3668 26.0625 28.875 26.0625V28.875Z" fill="#344ED1"/>
<path d="M43.5675 41.5791C44.9743 39.8956 46.006 37.9314 46.5935 35.8176C47.181 33.7038 47.311 31.489 46.9747 29.321C46.6384 27.153 45.8435 25.0817 44.6432 23.2452C43.4429 21.4087 41.8647 19.8494 40.0139 18.6713L38.6091 21.1041C40.4429 22.3036 41.9337 23.9588 42.9355 25.9076C43.9374 27.8564 44.4159 30.032 44.3242 32.2213C44.2326 34.4107 43.5739 36.5387 42.4127 38.3969C41.2515 40.2552 39.6275 41.78 37.6999 42.822C35.7723 43.8641 33.6071 44.3876 31.4163 44.3414C29.2256 44.2951 27.0844 43.6807 25.2024 42.5583C23.3205 41.4358 21.7623 39.8439 20.6805 37.9383C19.5988 36.0327 19.0304 33.8788 19.0313 31.6875H16.2188C16.2166 34.6272 17.0528 37.5066 18.6292 39.9878C20.2057 42.4691 22.4569 44.4494 25.119 45.6965C27.7811 46.9435 30.7436 47.4056 33.659 47.0285C36.5744 46.6514 39.3219 45.4508 41.5791 43.5675L52.1991 54.1875L54.1875 52.1991L43.5675 41.5791Z" fill="#344ED1"/>
</svg>
