<svg width="70" height="70" viewBox="0 0 70 70" fill="none" xmlns="http://www.w3.org/2000/svg">
<path fill-rule="evenodd" clip-rule="evenodd" d="M47.6415 8.02087H22.3569C13.5457 8.02087 8.02148 14.2596 8.02148 23.0884V46.9117C8.02148 55.7405 13.5165 61.9792 22.3569 61.9792H47.6386C56.479 61.9792 61.9798 55.7405 61.9798 46.9117V23.0884C61.9798 14.2596 56.479 8.02087 47.6415 8.02087Z" fill="#C03221" fill-opacity="0.5"/>
<path d="M16 49.125V25.9688C16 23.0597 17.1556 20.2697 19.2127 18.2127C21.2697 16.1556 24.0597 15 26.9688 15H44.0312C45.4717 15 46.898 15.2837 48.2288 15.8349C49.5596 16.3862 50.7688 17.1941 51.7873 18.2127C52.8059 19.2312 53.6138 20.4404 54.1651 21.7712C54.7163 23.102 55 24.5283 55 25.9688V43.0312C55 44.4717 54.7163 45.898 54.1651 47.2288C53.6138 48.5596 52.8059 49.7688 51.7873 50.7873C50.7688 51.8059 49.5596 52.6138 48.2288 53.1651C46.898 53.7163 45.4717 54 44.0312 54H20.875C19.5821 54 18.3421 53.4864 17.4279 52.5721C16.5136 51.6579 16 50.4179 16 49.125V49.125Z" stroke="#AD2D1E" stroke-width="3.75" stroke-linecap="round" stroke-linejoin="round"/>
<path d="M25.75 34.5H34.2813C35.5742 34.5 36.8142 35.0136 37.7284 35.9279C38.6426 36.8421 39.1563 38.0821 39.1563 39.375C39.1563 40.6679 38.6426 41.9079 37.7284 42.8221C36.8142 43.7364 35.5742 44.25 34.2813 44.25H25.75V27.1875C25.75 26.541 26.0068 25.921 26.4639 25.4639C26.921 25.0068 27.541 24.75 28.1875 24.75H31.8438C33.1367 24.75 34.3767 25.2636 35.2909 26.1779C36.2051 27.0921 36.7188 28.3321 36.7188 29.625C36.7188 30.9179 36.2051 32.1579 35.2909 33.0721C34.3767 33.9864 33.1367 34.5 31.8438 34.5H28.1875" stroke="#AD2D1E" stroke-width="3.75" stroke-linecap="round" stroke-linejoin="round"/>
<path d="M45.25 44.25H45.2744" stroke="#AD2D1E" stroke-width="3.75" stroke-linecap="round" stroke-linejoin="round"/>
</svg>
